;Layer: Drill PTH
;EasyEDA v6.3.41, 2020-05-08T09:10:35+02:00
;d89a9af8d5c5437eb0be35cb3310ab06,,10
;Gerber Generator version 0.2
M48
METRIC,LZ,000.000
;Holesize 1 = 0.305 METRIC
T01C0.305
;Holesize 2 = 0.889 METRIC
T02C0.889
;Holesize 3 = 0.891 METRIC
T03C0.891
;Holesize 4 = 0.900 METRIC
T04C0.900
;Holesize 5 = 0.901 METRIC
T05C0.901
;Holesize 6 = 0.915 METRIC
T06C0.915
;Holesize 7 = 1.016 METRIC
T07C1.016
;Holesize 8 = 1.200 METRIC
T08C1.200
;Holesize 9 = 1.397 METRIC
T09C1.397
;Holesize 10 = 1.600 METRIC
T10C1.600
;Holesize 11 = 1.701 METRIC
T11C1.701
;Holesize 12 = 2.101 METRIC
T12C2.101
%
G05
G90
T01
X+057729Y+035306
X+090749Y+019558
X+055443Y+034544
X+112847Y+033274
X+072715Y+042418
X+064841Y+032004
T02
X+032318Y+021103
X+029778Y+021103
X+027238Y+021103
X+019618Y+031263
X+019618Y+028723
X+019618Y+033803
X+132318Y+021103
X+129778Y+021103
X+127238Y+021103
X+119618Y+031263
X+119618Y+028723
X+119618Y+033803
T03
X+115641Y+043688
X+115641Y+041148
X+127833Y+057388
X+127833Y+059928
T04
X+032953Y+038883
X+026603Y+038883
X+026603Y+043963
X+032953Y+043963
X+132953Y+038883
X+126603Y+038883
X+126603Y+043963
X+132953Y+043963
T05
X+067635Y+045974
X+067635Y+043474
T06
X+107513Y+023108
X+107513Y+025648
X+107513Y+035808
X+107513Y+033268
X+107513Y+030728
X+107513Y+028188
X+104973Y+021838
X+102433Y+021838
X+099893Y+021838
X+097353Y+021838
X+094813Y+021838
X+092273Y+021838
X+089733Y+021838
X+087193Y+021838
X+084653Y+021838
X+082113Y+021838
X+079573Y+021838
X+077033Y+021838
X+077033Y+037078
X+079573Y+037078
X+082113Y+037078
X+084653Y+037078
X+087193Y+037078
X+089733Y+037078
X+092273Y+037078
X+094813Y+037078
X+097353Y+037078
X+099893Y+037078
X+102433Y+037078
X+104973Y+037078
X+093543Y+024384
X+096083Y+024384
X+077033Y+026918
X+077033Y+024378
X+036464Y+066268
X+039004Y+066268
X+041544Y+066268
X+044084Y+066268
X+046624Y+066268
X+028265Y+050546
X+030805Y+050546
X+128595Y+050546
X+131135Y+050546
X+039695Y+015240
X+039695Y+011176
X+046299Y+015240
X+046299Y+011176
X+075763Y+044450
X+078303Y+044450
X+080843Y+044450
X+083383Y+044450
X+083383Y+046990
X+080843Y+046990
X+078303Y+046990
X+075763Y+046990
X+021476Y+010346
X+021476Y+006282
X+028080Y+010346
X+028080Y+006282
X+113355Y+015240
X+113355Y+011176
X+119959Y+015240
X+119959Y+011176
X+131476Y+010346
X+131476Y+006282
X+138080Y+010346
X+138080Y+006282
T07
X+051887Y+022098
X+054427Y+022098
X+056967Y+022098
X+059507Y+022098
X+062047Y+022098
X+064587Y+022098
X+067127Y+022098
X+069667Y+022098
T08
X+057778Y+066314
X+062858Y+066314
X+052698Y+066314
X+101778Y+066314
X+106858Y+066314
X+096698Y+066314
T09
X+022158Y+037918
X+037398Y+037918
X+037398Y+024608
X+022158Y+024608
X+122158Y+037918
X+137398Y+037918
X+137398Y+024608
X+122158Y+024608
T10
X+119862Y+066045
X+116863Y+066045
T11
X+113863Y+066045
T12
X+039778Y+059314
X+039778Y+054615
X+039778Y+049916
X+119778Y+059314
X+119778Y+054615
X+119778Y+049916
M30
