G04 Layer: TopSilkLayer*
G04 EasyEDA v6.3.41, 2020-05-08T09:10:35+02:00*
G04 d89a9af8d5c5437eb0be35cb3310ab06,10*
G04 Gerber Generator version 0.2*
G04 Scale: 100 percent, Rotated: No, Reflected: No *
G04 Dimensions in millimeters *
G04 leading zeros omitted , absolute positions ,3 integer and 3 decimal *
%FSLAX33Y33*%
%MOMM*%
G90*
G71D02*

%ADD10C,0.254000*%
%ADD11C,0.299999*%
%ADD33C,0.200000*%
%ADD34C,0.253999*%
%ADD35C,0.200660*%
%ADD36C,0.100000*%
%ADD37C,0.180000*%
%ADD38C,0.177800*%
%ADD39C,0.203200*%
%ADD40C,0.150012*%

%LPD*%

%LPD*%
G36*
G01X59847Y56175D02*
G01X59654Y56175D01*
G01X59579Y56172D01*
G01X59518Y56161D01*
G01X59477Y56146D01*
G01X59461Y56127D01*
G01X59462Y56115D01*
G01X59465Y56090D01*
G01X59471Y56054D01*
G01X59478Y56007D01*
G01X59487Y55952D01*
G01X59497Y55888D01*
G01X59509Y55817D01*
G01X59522Y55738D01*
G01X59536Y55654D01*
G01X59551Y55566D01*
G01X59567Y55474D01*
G01X59584Y55379D01*
G01X59600Y55284D01*
G01X59617Y55192D01*
G01X59632Y55105D01*
G01X59646Y55024D01*
G01X59659Y54947D01*
G01X59671Y54879D01*
G01X59681Y54818D01*
G01X59690Y54765D01*
G01X59698Y54723D01*
G01X59703Y54691D01*
G01X59706Y54670D01*
G01X59707Y54661D01*
G01X59725Y54656D01*
G01X59776Y54654D01*
G01X59850Y54656D01*
G01X59941Y54660D01*
G01X60070Y54672D01*
G01X60142Y54695D01*
G01X60176Y54741D01*
G01X60190Y54823D01*
G01X60201Y54900D01*
G01X60216Y54956D01*
G01X60232Y54991D01*
G01X60249Y55006D01*
G01X60267Y54999D01*
G01X60285Y54971D01*
G01X60301Y54921D01*
G01X60316Y54850D01*
G01X60326Y54785D01*
G01X60338Y54735D01*
G01X60351Y54699D01*
G01X60371Y54676D01*
G01X60400Y54661D01*
G01X60440Y54654D01*
G01X60496Y54651D01*
G01X60568Y54651D01*
G01X60654Y54652D01*
G01X60724Y54655D01*
G01X60771Y54659D01*
G01X60789Y54664D01*
G01X60790Y54672D01*
G01X60793Y54693D01*
G01X60799Y54725D01*
G01X60806Y54767D01*
G01X60815Y54819D01*
G01X60825Y54880D01*
G01X60837Y54948D01*
G01X60850Y55024D01*
G01X60864Y55105D01*
G01X60879Y55192D01*
G01X60895Y55284D01*
G01X60912Y55379D01*
G01X60928Y55474D01*
G01X60945Y55566D01*
G01X60960Y55654D01*
G01X60974Y55738D01*
G01X60987Y55817D01*
G01X60999Y55888D01*
G01X61009Y55952D01*
G01X61018Y56007D01*
G01X61025Y56054D01*
G01X61031Y56090D01*
G01X61034Y56115D01*
G01X61035Y56127D01*
G01X61020Y56146D01*
G01X60978Y56161D01*
G01X60917Y56172D01*
G01X60842Y56175D01*
G01X60648Y56175D01*
G01X60615Y55905D01*
G01X60600Y55813D01*
G01X60581Y55743D01*
G01X60562Y55695D01*
G01X60542Y55669D01*
G01X60524Y55668D01*
G01X60508Y55692D01*
G01X60498Y55743D01*
G01X60493Y55822D01*
G01X60491Y55920D01*
G01X60482Y55998D01*
G01X60467Y56060D01*
G01X60444Y56107D01*
G01X60412Y56139D01*
G01X60370Y56160D01*
G01X60315Y56172D01*
G01X60248Y56175D01*
G01X60181Y56172D01*
G01X60126Y56160D01*
G01X60084Y56139D01*
G01X60052Y56107D01*
G01X60029Y56060D01*
G01X60014Y55998D01*
G01X60005Y55920D01*
G01X60003Y55822D01*
G01X59999Y55743D01*
G01X59988Y55692D01*
G01X59973Y55668D01*
G01X59954Y55669D01*
G01X59934Y55695D01*
G01X59914Y55743D01*
G01X59896Y55813D01*
G01X59881Y55905D01*
G01X59847Y56175D01*
G37*

%LPD*%
G36*
G01X62115Y56519D02*
G01X61969Y56520D01*
G01X61824Y56519D01*
G01X61715Y56518D01*
G01X61636Y56513D01*
G01X61583Y56504D01*
G01X61551Y56489D01*
G01X61534Y56467D01*
G01X61528Y56437D01*
G01X61527Y56397D01*
G01X61532Y56339D01*
G01X61549Y56301D01*
G01X61579Y56280D01*
G01X61625Y56274D01*
G01X61642Y56273D01*
G01X61656Y56271D01*
G01X61669Y56266D01*
G01X61680Y56256D01*
G01X61690Y56242D01*
G01X61698Y56222D01*
G01X61704Y56195D01*
G01X61710Y56160D01*
G01X61714Y56116D01*
G01X61717Y56061D01*
G01X61720Y55995D01*
G01X61721Y55918D01*
G01X61722Y55826D01*
G01X61723Y55720D01*
G01X61723Y54651D01*
G01X62166Y54651D01*
G01X62166Y56274D01*
G01X62289Y56274D01*
G01X62350Y56279D01*
G01X62387Y56298D01*
G01X62407Y56336D01*
G01X62412Y56397D01*
G01X62411Y56437D01*
G01X62405Y56467D01*
G01X62388Y56489D01*
G01X62355Y56504D01*
G01X62303Y56513D01*
G01X62224Y56518D01*
G01X62115Y56519D01*
G37*

%LPD*%
G36*
G01X57986Y56520D02*
G01X57543Y56520D01*
G01X57543Y54651D01*
G01X57986Y54651D01*
G01X57986Y55093D01*
G01X57987Y55188D01*
G01X57989Y55273D01*
G01X57994Y55349D01*
G01X57999Y55413D01*
G01X58006Y55465D01*
G01X58015Y55504D01*
G01X58024Y55527D01*
G01X58035Y55536D01*
G01X58046Y55527D01*
G01X58055Y55504D01*
G01X58063Y55465D01*
G01X58070Y55413D01*
G01X58076Y55349D01*
G01X58081Y55273D01*
G01X58083Y55188D01*
G01X58084Y55093D01*
G01X58084Y54651D01*
G01X58305Y54651D01*
G01X58421Y54654D01*
G01X58488Y54668D01*
G01X58519Y54700D01*
G01X58527Y54754D01*
G01X58528Y54812D01*
G01X58539Y54829D01*
G01X58566Y54807D01*
G01X58619Y54744D01*
G01X58647Y54712D01*
G01X58677Y54686D01*
G01X58709Y54666D01*
G01X58746Y54651D01*
G01X58789Y54641D01*
G01X58842Y54634D01*
G01X58906Y54630D01*
G01X58983Y54629D01*
G01X59042Y54630D01*
G01X59096Y54631D01*
G01X59144Y54633D01*
G01X59187Y54638D01*
G01X59225Y54645D01*
G01X59259Y54655D01*
G01X59288Y54668D01*
G01X59313Y54685D01*
G01X59335Y54707D01*
G01X59353Y54734D01*
G01X59368Y54766D01*
G01X59381Y54805D01*
G01X59390Y54849D01*
G01X59398Y54902D01*
G01X59403Y54961D01*
G01X59407Y55029D01*
G01X59409Y55105D01*
G01X59411Y55191D01*
G01X59412Y55286D01*
G01X59412Y55529D01*
G01X59411Y55646D01*
G01X59409Y55743D01*
G01X59406Y55824D01*
G01X59402Y55889D01*
G01X59396Y55941D01*
G01X59388Y55983D01*
G01X59377Y56016D01*
G01X59363Y56042D01*
G01X59346Y56062D01*
G01X59327Y56081D01*
G01X59303Y56098D01*
G01X59256Y56126D01*
G01X59204Y56148D01*
G01X59147Y56163D01*
G01X59087Y56173D01*
G01X59025Y56178D01*
G01X58963Y56176D01*
G01X58902Y56169D01*
G01X58842Y56157D01*
G01X58786Y56139D01*
G01X58734Y56116D01*
G01X58687Y56088D01*
G01X58647Y56054D01*
G01X58527Y55934D01*
G01X58527Y56520D01*
G01X58084Y56520D01*
G01X58084Y56151D01*
G01X58083Y56074D01*
G01X58081Y56003D01*
G01X58076Y55940D01*
G01X58070Y55886D01*
G01X58063Y55842D01*
G01X58055Y55809D01*
G01X58045Y55789D01*
G01X58035Y55782D01*
G01X58025Y55789D01*
G01X58015Y55809D01*
G01X58007Y55842D01*
G01X58000Y55886D01*
G01X57994Y55940D01*
G01X57989Y56003D01*
G01X57987Y56074D01*
G01X57986Y56151D01*
G01X57986Y56520D01*
G37*

%LPC*%
G36*
G01X59002Y55738D02*
G01X58999Y55755D01*
G01X58995Y55748D01*
G01X58993Y55719D01*
G01X58990Y55671D01*
G01X58989Y55603D01*
G01X58988Y55516D01*
G01X58988Y55310D01*
G01X58989Y55225D01*
G01X58991Y55160D01*
G01X58993Y55114D01*
G01X58995Y55091D01*
G01X58999Y55089D01*
G01X59002Y55110D01*
G01X59006Y55157D01*
G01X59009Y55219D01*
G01X59011Y55287D01*
G01X59013Y55359D01*
G01X59013Y55433D01*
G01X59012Y55506D01*
G01X59011Y55576D01*
G01X59009Y55640D01*
G01X59006Y55698D01*
G01X59002Y55738D01*
G37*

%LPD*%
G36*
G01X62910Y56176D02*
G01X62848Y56178D01*
G01X62786Y56173D01*
G01X62726Y56163D01*
G01X62669Y56148D01*
G01X62617Y56126D01*
G01X62570Y56098D01*
G01X62546Y56081D01*
G01X62527Y56062D01*
G01X62510Y56042D01*
G01X62496Y56015D01*
G01X62485Y55982D01*
G01X62477Y55940D01*
G01X62471Y55888D01*
G01X62467Y55821D01*
G01X62464Y55740D01*
G01X62462Y55641D01*
G01X62462Y55523D01*
G01X62461Y55383D01*
G01X62461Y54744D01*
G01X62639Y54669D01*
G01X62698Y54649D01*
G01X62759Y54633D01*
G01X62821Y54624D01*
G01X62883Y54620D01*
G01X62944Y54621D01*
G01X63004Y54627D01*
G01X63061Y54638D01*
G01X63114Y54654D01*
G01X63163Y54675D01*
G01X63207Y54700D01*
G01X63243Y54730D01*
G01X63273Y54764D01*
G01X63286Y54786D01*
G01X63297Y54811D01*
G01X63307Y54841D01*
G01X63316Y54877D01*
G01X63324Y54917D01*
G01X63330Y54965D01*
G01X63335Y55018D01*
G01X63339Y55079D01*
G01X63342Y55147D01*
G01X63345Y55223D01*
G01X63346Y55308D01*
G01X63346Y55517D01*
G01X63345Y55615D01*
G01X63343Y55698D01*
G01X63340Y55768D01*
G01X63335Y55825D01*
G01X63329Y55873D01*
G01X63319Y55913D01*
G01X63307Y55946D01*
G01X63292Y55975D01*
G01X63274Y56001D01*
G01X63252Y56027D01*
G01X63226Y56054D01*
G01X63186Y56088D01*
G01X63139Y56116D01*
G01X63087Y56139D01*
G01X63031Y56157D01*
G01X62971Y56169D01*
G01X62910Y56176D01*
G37*

%LPC*%
G36*
G01X62887Y55738D02*
G01X62884Y55755D01*
G01X62881Y55748D01*
G01X62878Y55719D01*
G01X62876Y55671D01*
G01X62875Y55603D01*
G01X62874Y55516D01*
G01X62873Y55413D01*
G01X62874Y55310D01*
G01X62875Y55225D01*
G01X62876Y55160D01*
G01X62879Y55114D01*
G01X62881Y55091D01*
G01X62884Y55089D01*
G01X62887Y55110D01*
G01X62891Y55157D01*
G01X62894Y55219D01*
G01X62896Y55287D01*
G01X62898Y55359D01*
G01X62898Y55506D01*
G01X62896Y55576D01*
G01X62894Y55640D01*
G01X62891Y55698D01*
G01X62887Y55738D01*
G37*

%LPD*%
G36*
G01X62942Y53864D02*
G01X62461Y53864D01*
G01X62461Y51896D01*
G01X62805Y51896D01*
G01X62810Y52327D01*
G01X62812Y52450D01*
G01X62814Y52544D01*
G01X62817Y52610D01*
G01X62822Y52650D01*
G01X62829Y52666D01*
G01X62837Y52659D01*
G01X62849Y52631D01*
G01X62862Y52585D01*
G01X62874Y52545D01*
G01X62887Y52498D01*
G01X62918Y52388D01*
G01X62952Y52269D01*
G01X62969Y52210D01*
G01X62984Y52155D01*
G01X63058Y51896D01*
G01X63937Y51896D01*
G01X63937Y53864D01*
G01X63150Y53864D01*
G01X63145Y53483D01*
G01X63140Y53101D01*
G01X63041Y53483D01*
G01X62942Y53864D01*
G37*

%LPD*%
G36*
G01X60445Y53864D02*
G01X59609Y53864D01*
G01X59609Y53716D01*
G01X59613Y53645D01*
G01X59629Y53599D01*
G01X59659Y53576D01*
G01X59707Y53569D01*
G01X59723Y53568D01*
G01X59738Y53566D01*
G01X59751Y53560D01*
G01X59762Y53551D01*
G01X59772Y53537D01*
G01X59780Y53516D01*
G01X59786Y53488D01*
G01X59791Y53452D01*
G01X59796Y53406D01*
G01X59799Y53350D01*
G01X59802Y53283D01*
G01X59803Y53202D01*
G01X59804Y53108D01*
G01X59805Y52999D01*
G01X59805Y51896D01*
G01X60248Y51896D01*
G01X60248Y52999D01*
G01X60249Y53108D01*
G01X60250Y53202D01*
G01X60252Y53283D01*
G01X60254Y53350D01*
G01X60257Y53406D01*
G01X60262Y53452D01*
G01X60267Y53488D01*
G01X60274Y53516D01*
G01X60282Y53537D01*
G01X60291Y53551D01*
G01X60302Y53560D01*
G01X60315Y53566D01*
G01X60329Y53568D01*
G01X60346Y53569D01*
G01X60394Y53576D01*
G01X60424Y53599D01*
G01X60440Y53645D01*
G01X60445Y53716D01*
G01X60445Y53864D01*
G37*

%LPD*%
G36*
G01X56608Y53864D02*
G01X55821Y53864D01*
G01X55821Y51896D01*
G01X56608Y51896D01*
G01X56608Y52044D01*
G01X56604Y52124D01*
G01X56582Y52169D01*
G01X56530Y52187D01*
G01X56437Y52191D01*
G01X56264Y52191D01*
G01X56264Y52831D01*
G01X56437Y52831D01*
G01X56527Y52835D01*
G01X56579Y52852D01*
G01X56603Y52889D01*
G01X56608Y52954D01*
G01X56603Y53018D01*
G01X56579Y53056D01*
G01X56527Y53073D01*
G01X56437Y53077D01*
G01X56264Y53077D01*
G01X56264Y53569D01*
G01X56437Y53569D01*
G01X56530Y53573D01*
G01X56582Y53591D01*
G01X56604Y53636D01*
G01X56608Y53716D01*
G01X56608Y53864D01*
G37*

%LPD*%
G36*
G01X52362Y56815D02*
G01X50363Y56815D01*
G01X50363Y51896D01*
G01X51592Y51896D01*
G01X51600Y54429D01*
G01X52451Y51896D01*
G01X53555Y51896D01*
G01X53624Y52130D01*
G01X53631Y52152D01*
G01X53639Y52181D01*
G01X53649Y52215D01*
G01X53661Y52255D01*
G01X53674Y52300D01*
G01X53688Y52350D01*
G01X53704Y52404D01*
G01X53721Y52462D01*
G01X53739Y52524D01*
G01X53758Y52590D01*
G01X53778Y52659D01*
G01X53799Y52730D01*
G01X53820Y52805D01*
G01X53842Y52881D01*
G01X53888Y53039D01*
G01X53911Y53121D01*
G01X53959Y53285D01*
G01X53983Y53368D01*
G01X54273Y54372D01*
G01X54286Y53134D01*
G01X54298Y51896D01*
G01X55674Y51896D01*
G01X55674Y56815D01*
G01X54496Y56815D01*
G01X54363Y56814D01*
G01X54139Y56814D01*
G01X54046Y56813D01*
G01X53965Y56812D01*
G01X53894Y56810D01*
G01X53833Y56808D01*
G01X53780Y56805D01*
G01X53737Y56801D01*
G01X53701Y56796D01*
G01X53672Y56790D01*
G01X53648Y56784D01*
G01X53629Y56777D01*
G01X53616Y56768D01*
G01X53606Y56758D01*
G01X53598Y56747D01*
G01X53592Y56734D01*
G01X53588Y56720D01*
G01X53584Y56704D01*
G01X53554Y56575D01*
G01X53524Y56450D01*
G01X53496Y56330D01*
G01X53468Y56214D01*
G01X53442Y56102D01*
G01X53416Y55994D01*
G01X53391Y55891D01*
G01X53368Y55792D01*
G01X53345Y55697D01*
G01X53323Y55606D01*
G01X53302Y55519D01*
G01X53281Y55436D01*
G01X53262Y55356D01*
G01X53243Y55281D01*
G01X53226Y55209D01*
G01X53208Y55141D01*
G01X53192Y55076D01*
G01X53177Y55015D01*
G01X53162Y54958D01*
G01X53148Y54905D01*
G01X53135Y54854D01*
G01X53122Y54807D01*
G01X53110Y54763D01*
G01X53099Y54723D01*
G01X53089Y54686D01*
G01X53079Y54652D01*
G01X53070Y54621D01*
G01X53062Y54593D01*
G01X53053Y54568D01*
G01X53046Y54547D01*
G01X53040Y54528D01*
G01X53034Y54512D01*
G01X53028Y54499D01*
G01X53023Y54488D01*
G01X53018Y54480D01*
G01X53014Y54475D01*
G01X53011Y54472D01*
G01X53008Y54472D01*
G01X53006Y54475D01*
G01X53004Y54480D01*
G01X53000Y54492D01*
G01X52995Y54510D01*
G01X52988Y54536D01*
G01X52979Y54568D01*
G01X52969Y54606D01*
G01X52956Y54650D01*
G01X52943Y54699D01*
G01X52927Y54754D01*
G01X52911Y54813D01*
G01X52893Y54877D01*
G01X52875Y54945D01*
G01X52855Y55017D01*
G01X52834Y55093D01*
G01X52812Y55172D01*
G01X52790Y55254D01*
G01X52767Y55338D01*
G01X52743Y55425D01*
G01X52719Y55514D01*
G01X52694Y55604D01*
G01X52669Y55696D01*
G01X52362Y56815D01*
G37*

%LPD*%
G36*
G01X59173Y53866D02*
G01X59145Y53866D01*
G01X59114Y53865D01*
G01X59080Y53864D01*
G01X59042Y53864D01*
G01X58938Y53860D01*
G01X58852Y53851D01*
G01X58794Y53836D01*
G01X58772Y53819D01*
G01X58772Y53810D01*
G01X58770Y53793D01*
G01X58767Y53768D01*
G01X58763Y53735D01*
G01X58758Y53696D01*
G01X58752Y53649D01*
G01X58745Y53597D01*
G01X58736Y53539D01*
G01X58728Y53476D01*
G01X58718Y53409D01*
G01X58708Y53336D01*
G01X58697Y53261D01*
G01X58686Y53182D01*
G01X58674Y53100D01*
G01X58662Y53015D01*
G01X58650Y52929D01*
G01X58630Y52798D01*
G01X58613Y52678D01*
G01X58597Y52569D01*
G01X58583Y52471D01*
G01X58571Y52382D01*
G01X58560Y52304D01*
G01X58551Y52234D01*
G01X58544Y52173D01*
G01X58540Y52119D01*
G01X58537Y52073D01*
G01X58536Y52033D01*
G01X58537Y52000D01*
G01X58539Y51973D01*
G01X58545Y51951D01*
G01X58552Y51933D01*
G01X58561Y51920D01*
G01X58573Y51910D01*
G01X58587Y51903D01*
G01X58603Y51899D01*
G01X58621Y51897D01*
G01X58642Y51896D01*
G01X58718Y51896D01*
G01X58790Y51899D01*
G01X58847Y51908D01*
G01X58891Y51927D01*
G01X58923Y51956D01*
G01X58946Y51997D01*
G01X58960Y52054D01*
G01X58967Y52128D01*
G01X58969Y52220D01*
G01X58974Y52293D01*
G01X58986Y52345D01*
G01X59008Y52377D01*
G01X59037Y52388D01*
G01X59064Y52381D01*
G01X59088Y52362D01*
G01X59110Y52331D01*
G01X59129Y52289D01*
G01X59144Y52237D01*
G01X59155Y52176D01*
G01X59163Y52108D01*
G01X59165Y52032D01*
G01X59171Y51957D01*
G01X59199Y51916D01*
G01X59266Y51900D01*
G01X59391Y51896D01*
G01X59519Y51899D01*
G01X59583Y51915D01*
G01X59600Y51955D01*
G01X59590Y52032D01*
G01X59585Y52057D01*
G01X59579Y52094D01*
G01X59571Y52142D01*
G01X59562Y52201D01*
G01X59552Y52269D01*
G01X59541Y52344D01*
G01X59529Y52426D01*
G01X59516Y52515D01*
G01X59503Y52607D01*
G01X59489Y52705D01*
G01X59476Y52804D01*
G01X59462Y52905D01*
G01X59445Y53031D01*
G01X59429Y53145D01*
G01X59415Y53249D01*
G01X59402Y53342D01*
G01X59391Y53425D01*
G01X59380Y53499D01*
G01X59369Y53565D01*
G01X59359Y53621D01*
G01X59349Y53671D01*
G01X59338Y53713D01*
G01X59328Y53749D01*
G01X59316Y53779D01*
G01X59304Y53804D01*
G01X59291Y53823D01*
G01X59276Y53838D01*
G01X59259Y53849D01*
G01X59241Y53857D01*
G01X59221Y53862D01*
G01X59198Y53865D01*
G01X59173Y53866D01*
G37*

%LPC*%
G36*
G01X59051Y52892D02*
G01X59041Y52907D01*
G01X59034Y52900D01*
G01X59028Y52874D01*
G01X59026Y52831D01*
G01X59028Y52788D01*
G01X59034Y52762D01*
G01X59041Y52755D01*
G01X59051Y52770D01*
G01X59058Y52798D01*
G01X59061Y52831D01*
G01X59058Y52864D01*
G01X59051Y52892D01*
G37*

%LPD*%
G36*
G01X60863Y53864D02*
G01X60494Y53864D01*
G01X60494Y51896D01*
G01X60937Y51896D01*
G01X60937Y52458D01*
G01X60939Y52533D01*
G01X60942Y52598D01*
G01X60946Y52655D01*
G01X60951Y52702D01*
G01X60956Y52741D01*
G01X60962Y52770D01*
G01X60969Y52790D01*
G01X60976Y52801D01*
G01X60983Y52803D01*
G01X60990Y52796D01*
G01X60998Y52781D01*
G01X61005Y52756D01*
G01X61012Y52723D01*
G01X61019Y52681D01*
G01X61026Y52629D01*
G01X61032Y52570D01*
G01X61037Y52501D01*
G01X61041Y52425D01*
G01X61045Y52339D01*
G01X61059Y51921D01*
G01X61459Y51892D01*
G01X61438Y52349D01*
G01X61432Y52460D01*
G01X61424Y52557D01*
G01X61415Y52643D01*
G01X61404Y52715D01*
G01X61392Y52776D01*
G01X61377Y52825D01*
G01X61361Y52864D01*
G01X61343Y52890D01*
G01X61306Y52937D01*
G01X61295Y52973D01*
G01X61309Y53009D01*
G01X61349Y53053D01*
G01X61384Y53105D01*
G01X61409Y53179D01*
G01X61424Y53278D01*
G01X61428Y53400D01*
G01X61427Y53470D01*
G01X61424Y53532D01*
G01X61417Y53587D01*
G01X61407Y53637D01*
G01X61393Y53680D01*
G01X61374Y53718D01*
G01X61352Y53750D01*
G01X61324Y53778D01*
G01X61290Y53801D01*
G01X61250Y53820D01*
G01X61204Y53834D01*
G01X61151Y53846D01*
G01X61091Y53854D01*
G01X61023Y53860D01*
G01X60947Y53863D01*
G01X60863Y53864D01*
G37*

%LPC*%
G36*
G01X61005Y53519D02*
G01X60986Y53544D01*
G01X60965Y53541D01*
G01X60950Y53505D01*
G01X60940Y53439D01*
G01X60937Y53347D01*
G01X60940Y53255D01*
G01X60950Y53190D01*
G01X60965Y53154D01*
G01X60986Y53151D01*
G01X61005Y53175D01*
G01X61020Y53221D01*
G01X61031Y53280D01*
G01X61035Y53347D01*
G01X61031Y53414D01*
G01X61020Y53474D01*
G01X61005Y53519D01*
G37*

%LPD*%
G36*
G01X64520Y53862D02*
G01X64437Y53864D01*
G01X64371Y53862D01*
G01X64312Y53859D01*
G01X64261Y53852D01*
G01X64217Y53842D01*
G01X64178Y53829D01*
G01X64144Y53811D01*
G01X64113Y53791D01*
G01X64084Y53765D01*
G01X64068Y53748D01*
G01X64054Y53731D01*
G01X64041Y53712D01*
G01X64031Y53690D01*
G01X64021Y53665D01*
G01X64013Y53635D01*
G01X64006Y53599D01*
G01X64001Y53557D01*
G01X63997Y53508D01*
G01X63993Y53449D01*
G01X63991Y53381D01*
G01X63989Y53303D01*
G01X63987Y53213D01*
G01X63986Y53110D01*
G01X63986Y52750D01*
G01X63987Y52646D01*
G01X63988Y52551D01*
G01X63989Y52464D01*
G01X63992Y52385D01*
G01X63995Y52313D01*
G01X64000Y52248D01*
G01X64006Y52190D01*
G01X64014Y52139D01*
G01X64023Y52093D01*
G01X64034Y52054D01*
G01X64048Y52019D01*
G01X64063Y51989D01*
G01X64081Y51964D01*
G01X64101Y51943D01*
G01X64124Y51925D01*
G01X64150Y51912D01*
G01X64179Y51900D01*
G01X64211Y51892D01*
G01X64246Y51886D01*
G01X64285Y51881D01*
G01X64327Y51878D01*
G01X64374Y51876D01*
G01X64424Y51875D01*
G01X64487Y51876D01*
G01X64545Y51879D01*
G01X64597Y51885D01*
G01X64643Y51895D01*
G01X64685Y51908D01*
G01X64721Y51925D01*
G01X64753Y51947D01*
G01X64781Y51972D01*
G01X64803Y52002D01*
G01X64823Y52038D01*
G01X64838Y52079D01*
G01X64851Y52125D01*
G01X64860Y52177D01*
G01X64866Y52236D01*
G01X64870Y52300D01*
G01X64871Y52371D01*
G01X64871Y52683D01*
G01X64478Y52683D01*
G01X64478Y52437D01*
G01X64474Y52342D01*
G01X64463Y52264D01*
G01X64447Y52211D01*
G01X64429Y52191D01*
G01X64421Y52197D01*
G01X64414Y52213D01*
G01X64408Y52239D01*
G01X64402Y52275D01*
G01X64397Y52321D01*
G01X64392Y52376D01*
G01X64388Y52440D01*
G01X64385Y52512D01*
G01X64383Y52593D01*
G01X64381Y52681D01*
G01X64380Y52777D01*
G01X64379Y52880D01*
G01X64380Y52983D01*
G01X64381Y53079D01*
G01X64383Y53167D01*
G01X64385Y53248D01*
G01X64388Y53320D01*
G01X64392Y53384D01*
G01X64397Y53439D01*
G01X64402Y53485D01*
G01X64408Y53521D01*
G01X64414Y53547D01*
G01X64421Y53563D01*
G01X64429Y53569D01*
G01X64447Y53551D01*
G01X64463Y53504D01*
G01X64474Y53433D01*
G01X64478Y53347D01*
G01X64478Y53126D01*
G01X64871Y53126D01*
G01X64871Y53413D01*
G01X64869Y53500D01*
G01X64863Y53574D01*
G01X64853Y53639D01*
G01X64837Y53693D01*
G01X64815Y53739D01*
G01X64787Y53776D01*
G01X64751Y53806D01*
G01X64707Y53829D01*
G01X64654Y53845D01*
G01X64592Y53856D01*
G01X64520Y53862D01*
G37*

%LPD*%
G36*
G01X57187Y53860D02*
G01X57120Y53865D01*
G01X57053Y53864D01*
G01X56987Y53859D01*
G01X56924Y53849D01*
G01X56865Y53833D01*
G01X56812Y53813D01*
G01X56767Y53787D01*
G01X56749Y53773D01*
G01X56732Y53760D01*
G01X56718Y53745D01*
G01X56705Y53727D01*
G01X56695Y53706D01*
G01X56686Y53679D01*
G01X56679Y53647D01*
G01X56673Y53607D01*
G01X56668Y53559D01*
G01X56664Y53502D01*
G01X56662Y53432D01*
G01X56660Y53352D01*
G01X56659Y53258D01*
G01X56658Y53150D01*
G01X56658Y52638D01*
G01X56659Y52533D01*
G01X56661Y52439D01*
G01X56664Y52356D01*
G01X56668Y52281D01*
G01X56673Y52216D01*
G01X56681Y52159D01*
G01X56689Y52110D01*
G01X56700Y52068D01*
G01X56714Y52032D01*
G01X56729Y52001D01*
G01X56748Y51976D01*
G01X56769Y51955D01*
G01X56793Y51937D01*
G01X56821Y51922D01*
G01X56853Y51909D01*
G01X56888Y51898D01*
G01X56927Y51887D01*
G01X56970Y51876D01*
G01X57039Y51867D01*
G01X57114Y51868D01*
G01X57193Y51879D01*
G01X57270Y51898D01*
G01X57343Y51925D01*
G01X57406Y51957D01*
G01X57458Y51994D01*
G01X57492Y52035D01*
G01X57517Y52075D01*
G01X57532Y52084D01*
G01X57539Y52062D01*
G01X57542Y52007D01*
G01X57549Y51949D01*
G01X57580Y51915D01*
G01X57647Y51900D01*
G01X57765Y51896D01*
G01X57986Y51896D01*
G01X57986Y52364D01*
G01X57987Y52464D01*
G01X57989Y52554D01*
G01X57994Y52634D01*
G01X57999Y52702D01*
G01X58006Y52756D01*
G01X58015Y52797D01*
G01X58024Y52822D01*
G01X58035Y52831D01*
G01X58046Y52822D01*
G01X58055Y52797D01*
G01X58063Y52756D01*
G01X58070Y52702D01*
G01X58076Y52634D01*
G01X58081Y52554D01*
G01X58083Y52464D01*
G01X58084Y52364D01*
G01X58084Y51896D01*
G01X58477Y51896D01*
G01X58477Y53864D01*
G01X58084Y53864D01*
G01X58084Y53470D01*
G01X58083Y53387D01*
G01X58081Y53312D01*
G01X58076Y53245D01*
G01X58070Y53188D01*
G01X58063Y53141D01*
G01X58055Y53106D01*
G01X58045Y53084D01*
G01X58035Y53077D01*
G01X58025Y53084D01*
G01X58015Y53106D01*
G01X58007Y53141D01*
G01X57999Y53188D01*
G01X57994Y53245D01*
G01X57989Y53312D01*
G01X57987Y53387D01*
G01X57986Y53470D01*
G01X57986Y53864D01*
G01X57765Y53864D01*
G01X57650Y53860D01*
G01X57583Y53846D01*
G01X57551Y53816D01*
G01X57543Y53765D01*
G01X57543Y53667D01*
G01X57445Y53765D01*
G01X57408Y53794D01*
G01X57363Y53818D01*
G01X57310Y53836D01*
G01X57250Y53851D01*
G01X57187Y53860D01*
G37*

%LPC*%
G36*
G01X57119Y53551D02*
G01X57101Y53569D01*
G01X57093Y53563D01*
G01X57086Y53547D01*
G01X57080Y53521D01*
G01X57074Y53485D01*
G01X57069Y53439D01*
G01X57065Y53384D01*
G01X57060Y53320D01*
G01X57057Y53248D01*
G01X57054Y53167D01*
G01X57053Y53079D01*
G01X57051Y52983D01*
G01X57051Y52777D01*
G01X57053Y52681D01*
G01X57054Y52593D01*
G01X57057Y52512D01*
G01X57060Y52440D01*
G01X57065Y52376D01*
G01X57069Y52321D01*
G01X57074Y52275D01*
G01X57080Y52239D01*
G01X57086Y52213D01*
G01X57093Y52197D01*
G01X57101Y52191D01*
G01X57119Y52211D01*
G01X57135Y52264D01*
G01X57146Y52342D01*
G01X57149Y52437D01*
G01X57149Y52683D01*
G01X57543Y52683D01*
G01X57543Y53126D01*
G01X57149Y53126D01*
G01X57149Y53347D01*
G01X57146Y53433D01*
G01X57135Y53504D01*
G01X57119Y53551D01*
G37*

%LPD*%
G36*
G01X65424Y53860D02*
G01X65359Y53861D01*
G01X65294Y53858D01*
G01X65231Y53852D01*
G01X65171Y53841D01*
G01X65116Y53827D01*
G01X65068Y53809D01*
G01X65029Y53787D01*
G01X64998Y53763D01*
G01X64973Y53736D01*
G01X64954Y53706D01*
G01X64940Y53669D01*
G01X64930Y53622D01*
G01X64924Y53564D01*
G01X64921Y53491D01*
G01X64920Y53401D01*
G01X64920Y53332D01*
G01X64922Y53272D01*
G01X64925Y53221D01*
G01X64931Y53175D01*
G01X64940Y53134D01*
G01X64953Y53096D01*
G01X64972Y53058D01*
G01X64996Y53019D01*
G01X65027Y52976D01*
G01X65065Y52929D01*
G01X65111Y52874D01*
G01X65166Y52811D01*
G01X65233Y52733D01*
G01X65287Y52665D01*
G01X65330Y52605D01*
G01X65362Y52552D01*
G01X65386Y52502D01*
G01X65401Y52455D01*
G01X65409Y52407D01*
G01X65412Y52357D01*
G01X65409Y52298D01*
G01X65403Y52253D01*
G01X65393Y52222D01*
G01X65381Y52203D01*
G01X65366Y52197D01*
G01X65350Y52203D01*
G01X65334Y52219D01*
G01X65318Y52247D01*
G01X65303Y52285D01*
G01X65291Y52332D01*
G01X65280Y52389D01*
G01X65274Y52454D01*
G01X65269Y52528D01*
G01X65263Y52585D01*
G01X65253Y52626D01*
G01X65239Y52653D01*
G01X65217Y52670D01*
G01X65187Y52679D01*
G01X65145Y52683D01*
G01X64920Y52683D01*
G01X64921Y52376D01*
G01X64924Y52252D01*
G01X64932Y52142D01*
G01X64944Y52057D01*
G01X64959Y52010D01*
G01X64991Y51974D01*
G01X65039Y51941D01*
G01X65098Y51914D01*
G01X65166Y51891D01*
G01X65239Y51875D01*
G01X65315Y51866D01*
G01X65390Y51865D01*
G01X65461Y51873D01*
G01X65528Y51887D01*
G01X65586Y51903D01*
G01X65636Y51923D01*
G01X65678Y51947D01*
G01X65713Y51976D01*
G01X65741Y52011D01*
G01X65763Y52053D01*
G01X65780Y52103D01*
G01X65792Y52161D01*
G01X65800Y52229D01*
G01X65804Y52307D01*
G01X65806Y52397D01*
G01X65805Y52473D01*
G01X65804Y52537D01*
G01X65802Y52592D01*
G01X65797Y52639D01*
G01X65789Y52681D01*
G01X65778Y52719D01*
G01X65763Y52754D01*
G01X65743Y52788D01*
G01X65717Y52824D01*
G01X65686Y52862D01*
G01X65648Y52905D01*
G01X65603Y52955D01*
G01X65399Y53175D01*
G01X65818Y53175D01*
G01X65795Y53453D01*
G01X65788Y53522D01*
G01X65779Y53582D01*
G01X65768Y53635D01*
G01X65755Y53681D01*
G01X65741Y53719D01*
G01X65723Y53751D01*
G01X65703Y53777D01*
G01X65681Y53797D01*
G01X65645Y53818D01*
G01X65599Y53834D01*
G01X65546Y53847D01*
G01X65487Y53856D01*
G01X65424Y53860D01*
G37*

%LPC*%
G36*
G01X65382Y53554D02*
G01X65363Y53569D01*
G01X65328Y53536D01*
G01X65316Y53457D01*
G01X65328Y53360D01*
G01X65363Y53273D01*
G01X65385Y53249D01*
G01X65400Y53257D01*
G01X65408Y53301D01*
G01X65412Y53384D01*
G01X65407Y53456D01*
G01X65397Y53514D01*
G01X65382Y53554D01*
G37*

%LPD*%
G36*
G01X62023Y53868D02*
G01X61950Y53870D01*
G01X61878Y53867D01*
G01X61809Y53858D01*
G01X61743Y53842D01*
G01X61685Y53821D01*
G01X61635Y53794D01*
G01X61596Y53760D01*
G01X61581Y53742D01*
G01X61567Y53724D01*
G01X61556Y53704D01*
G01X61546Y53680D01*
G01X61537Y53653D01*
G01X61529Y53622D01*
G01X61523Y53585D01*
G01X61517Y53541D01*
G01X61513Y53490D01*
G01X61510Y53431D01*
G01X61507Y53362D01*
G01X61505Y53283D01*
G01X61503Y53193D01*
G01X61502Y53091D01*
G01X61502Y52598D01*
G01X61503Y52495D01*
G01X61504Y52404D01*
G01X61507Y52326D01*
G01X61509Y52258D01*
G01X61513Y52201D01*
G01X61517Y52152D01*
G01X61522Y52111D01*
G01X61529Y52077D01*
G01X61536Y52049D01*
G01X61545Y52026D01*
G01X61556Y52008D01*
G01X61568Y51992D01*
G01X61581Y51979D01*
G01X61597Y51967D01*
G01X61640Y51938D01*
G01X61686Y51915D01*
G01X61734Y51895D01*
G01X61783Y51881D01*
G01X61834Y51870D01*
G01X61885Y51864D01*
G01X61938Y51863D01*
G01X61992Y51867D01*
G01X62044Y51875D01*
G01X62097Y51888D01*
G01X62150Y51906D01*
G01X62201Y51928D01*
G01X62387Y52019D01*
G01X62401Y52842D01*
G01X62403Y52978D01*
G01X62405Y53099D01*
G01X62406Y53205D01*
G01X62406Y53298D01*
G01X62405Y53378D01*
G01X62404Y53448D01*
G01X62401Y53507D01*
G01X62398Y53557D01*
G01X62392Y53599D01*
G01X62386Y53635D01*
G01X62379Y53664D01*
G01X62369Y53689D01*
G01X62358Y53710D01*
G01X62346Y53729D01*
G01X62331Y53747D01*
G01X62315Y53764D01*
G01X62273Y53797D01*
G01X62221Y53824D01*
G01X62160Y53844D01*
G01X62094Y53859D01*
G01X62023Y53868D01*
G37*

%LPC*%
G36*
G01X61977Y53563D02*
G01X61969Y53569D01*
G01X61962Y53563D01*
G01X61955Y53547D01*
G01X61949Y53521D01*
G01X61943Y53485D01*
G01X61938Y53439D01*
G01X61933Y53384D01*
G01X61929Y53320D01*
G01X61926Y53248D01*
G01X61924Y53167D01*
G01X61922Y53079D01*
G01X61921Y52983D01*
G01X61920Y52880D01*
G01X61921Y52777D01*
G01X61922Y52681D01*
G01X61924Y52593D01*
G01X61926Y52512D01*
G01X61929Y52440D01*
G01X61933Y52376D01*
G01X61938Y52321D01*
G01X61943Y52275D01*
G01X61949Y52239D01*
G01X61955Y52213D01*
G01X61962Y52197D01*
G01X61969Y52191D01*
G01X61977Y52197D01*
G01X61984Y52213D01*
G01X61990Y52239D01*
G01X61996Y52275D01*
G01X62001Y52321D01*
G01X62005Y52376D01*
G01X62009Y52440D01*
G01X62012Y52512D01*
G01X62015Y52593D01*
G01X62017Y52681D01*
G01X62018Y52777D01*
G01X62019Y52880D01*
G01X62018Y52983D01*
G01X62017Y53079D01*
G01X62015Y53167D01*
G01X62012Y53248D01*
G01X62009Y53320D01*
G01X62005Y53384D01*
G01X62001Y53439D01*
G01X61996Y53485D01*
G01X61990Y53521D01*
G01X61984Y53547D01*
G01X61977Y53563D01*
G37*

%LPD*%
G36*
G01X61777Y51546D02*
G01X61748Y51552D01*
G01X61719Y51546D01*
G01X61696Y51531D01*
G01X61680Y51507D01*
G01X61674Y51478D01*
G01X61680Y51450D01*
G01X61696Y51426D01*
G01X61719Y51411D01*
G01X61748Y51405D01*
G01X61777Y51411D01*
G01X61800Y51426D01*
G01X61816Y51450D01*
G01X61822Y51478D01*
G01X61816Y51507D01*
G01X61800Y51531D01*
G01X61777Y51546D01*
G37*

%LPD*%
G36*
G01X63636Y51153D02*
G01X63592Y51159D01*
G01X63549Y51153D01*
G01X63519Y51134D01*
G01X63500Y51103D01*
G01X63494Y51060D01*
G01X63500Y51017D01*
G01X63519Y50986D01*
G01X63549Y50968D01*
G01X63592Y50962D01*
G01X63636Y50968D01*
G01X63666Y50986D01*
G01X63684Y51017D01*
G01X63691Y51060D01*
G01X63684Y51103D01*
G01X63666Y51134D01*
G01X63636Y51153D01*
G37*

%LPD*%
G36*
G01X52579Y51143D02*
G01X52517Y51153D01*
G01X52463Y51128D01*
G01X52428Y51069D01*
G01X52435Y51016D01*
G01X52479Y50977D01*
G01X52555Y50962D01*
G01X52613Y50967D01*
G01X52650Y50981D01*
G01X52666Y51007D01*
G01X52665Y51047D01*
G01X52634Y51106D01*
G01X52579Y51143D01*
G37*

%LPD*%
G36*
G01X55126Y51549D02*
G01X55010Y51552D01*
G01X54894Y51549D01*
G01X54827Y51534D01*
G01X54796Y51503D01*
G01X54789Y51449D01*
G01X54793Y51405D01*
G01X54806Y51377D01*
G01X54829Y51366D01*
G01X54860Y51373D01*
G01X54896Y51374D01*
G01X54920Y51339D01*
G01X54936Y51261D01*
G01X54946Y51131D01*
G01X54956Y51027D01*
G01X54971Y50941D01*
G01X54990Y50884D01*
G01X55010Y50862D01*
G01X55031Y50884D01*
G01X55049Y50941D01*
G01X55065Y51027D01*
G01X55074Y51131D01*
G01X55084Y51261D01*
G01X55100Y51339D01*
G01X55125Y51374D01*
G01X55160Y51373D01*
G01X55192Y51366D01*
G01X55214Y51377D01*
G01X55227Y51405D01*
G01X55232Y51449D01*
G01X55224Y51503D01*
G01X55193Y51534D01*
G01X55126Y51549D01*
G37*

%LPD*%
G36*
G01X53019Y51523D02*
G01X52978Y51534D01*
G01X52942Y51488D01*
G01X52932Y51452D01*
G01X52926Y51402D01*
G01X52924Y51343D01*
G01X52924Y51275D01*
G01X52926Y51204D01*
G01X52931Y51132D01*
G01X52938Y51062D01*
G01X52947Y50997D01*
G01X52957Y50940D01*
G01X52968Y50894D01*
G01X52981Y50864D01*
G01X52994Y50851D01*
G01X53014Y50857D01*
G01X53033Y50882D01*
G01X53048Y50922D01*
G01X53058Y50974D01*
G01X53073Y51034D01*
G01X53098Y51077D01*
G01X53130Y51104D01*
G01X53165Y51114D01*
G01X53201Y51108D01*
G01X53233Y51084D01*
G01X53259Y51043D01*
G01X53273Y50985D01*
G01X53282Y50930D01*
G01X53293Y50890D01*
G01X53304Y50865D01*
G01X53317Y50854D01*
G01X53330Y50857D01*
G01X53342Y50872D01*
G01X53354Y50900D01*
G01X53365Y50938D01*
G01X53374Y50985D01*
G01X53381Y51043D01*
G01X53386Y51109D01*
G01X53387Y51183D01*
G01X53386Y51257D01*
G01X53381Y51323D01*
G01X53374Y51381D01*
G01X53365Y51429D01*
G01X53354Y51467D01*
G01X53342Y51494D01*
G01X53330Y51510D01*
G01X53317Y51512D01*
G01X53304Y51502D01*
G01X53293Y51477D01*
G01X53282Y51437D01*
G01X53273Y51382D01*
G01X53258Y51325D01*
G01X53232Y51284D01*
G01X53199Y51259D01*
G01X53162Y51251D01*
G01X53127Y51258D01*
G01X53097Y51282D01*
G01X53075Y51321D01*
G01X53068Y51377D01*
G01X53053Y51468D01*
G01X53019Y51523D01*
G37*

%LPD*%
G36*
G01X54215Y51341D02*
G01X54194Y51355D01*
G01X54177Y51341D01*
G01X54163Y51301D01*
G01X54153Y51242D01*
G01X54150Y51171D01*
G01X54154Y51094D01*
G01X54164Y51019D01*
G01X54179Y50956D01*
G01X54197Y50914D01*
G01X54228Y50884D01*
G01X54277Y50860D01*
G01X54337Y50844D01*
G01X54402Y50835D01*
G01X54467Y50834D01*
G01X54527Y50840D01*
G01X54574Y50856D01*
G01X54604Y50881D01*
G01X54621Y50925D01*
G01X54633Y50991D01*
G01X54639Y51068D01*
G01X54639Y51150D01*
G01X54635Y51228D01*
G01X54625Y51293D01*
G01X54611Y51338D01*
G01X54592Y51355D01*
G01X54573Y51344D01*
G01X54558Y51312D01*
G01X54547Y51265D01*
G01X54539Y51151D01*
G01X54529Y51104D01*
G01X54513Y51072D01*
G01X54494Y51060D01*
G01X54475Y51066D01*
G01X54459Y51082D01*
G01X54448Y51105D01*
G01X54445Y51134D01*
G01X54429Y51196D01*
G01X54395Y51206D01*
G01X54359Y51171D01*
G01X54341Y51097D01*
G01X54336Y51060D01*
G01X54325Y51060D01*
G01X54309Y51097D01*
G01X54287Y51171D01*
G01X54264Y51242D01*
G01X54240Y51301D01*
G01X54215Y51341D01*
G37*

%LPD*%
G36*
G01X51756Y51341D02*
G01X51735Y51355D01*
G01X51717Y51341D01*
G01X51704Y51301D01*
G01X51694Y51242D01*
G01X51691Y51171D01*
G01X51695Y51094D01*
G01X51705Y51019D01*
G01X51720Y50956D01*
G01X51738Y50914D01*
G01X51769Y50884D01*
G01X51818Y50860D01*
G01X51878Y50844D01*
G01X51943Y50835D01*
G01X52008Y50834D01*
G01X52067Y50840D01*
G01X52115Y50856D01*
G01X52145Y50881D01*
G01X52162Y50925D01*
G01X52174Y50991D01*
G01X52180Y51068D01*
G01X52180Y51150D01*
G01X52176Y51228D01*
G01X52166Y51293D01*
G01X52152Y51338D01*
G01X52133Y51355D01*
G01X52114Y51344D01*
G01X52098Y51312D01*
G01X52088Y51265D01*
G01X52080Y51151D01*
G01X52069Y51104D01*
G01X52054Y51072D01*
G01X52035Y51060D01*
G01X52016Y51066D01*
G01X52000Y51082D01*
G01X51989Y51105D01*
G01X51986Y51134D01*
G01X51970Y51196D01*
G01X51936Y51206D01*
G01X51901Y51171D01*
G01X51882Y51097D01*
G01X51877Y51060D01*
G01X51866Y51060D01*
G01X51850Y51097D01*
G01X51828Y51171D01*
G01X51805Y51242D01*
G01X51780Y51301D01*
G01X51756Y51341D01*
G37*

%LPD*%
G36*
G01X50526Y51341D02*
G01X50505Y51355D01*
G01X50488Y51341D01*
G01X50474Y51301D01*
G01X50465Y51242D01*
G01X50462Y51171D01*
G01X50466Y51094D01*
G01X50476Y51019D01*
G01X50491Y50956D01*
G01X50508Y50914D01*
G01X50540Y50884D01*
G01X50588Y50860D01*
G01X50648Y50844D01*
G01X50714Y50835D01*
G01X50779Y50834D01*
G01X50838Y50840D01*
G01X50885Y50856D01*
G01X50915Y50881D01*
G01X50932Y50925D01*
G01X50944Y50991D01*
G01X50950Y51068D01*
G01X50951Y51150D01*
G01X50946Y51228D01*
G01X50937Y51293D01*
G01X50922Y51338D01*
G01X50904Y51355D01*
G01X50884Y51344D01*
G01X50869Y51312D01*
G01X50858Y51265D01*
G01X50854Y51208D01*
G01X50851Y51151D01*
G01X50840Y51104D01*
G01X50824Y51072D01*
G01X50805Y51060D01*
G01X50786Y51066D01*
G01X50770Y51082D01*
G01X50760Y51105D01*
G01X50756Y51134D01*
G01X50740Y51196D01*
G01X50706Y51206D01*
G01X50671Y51171D01*
G01X50653Y51097D01*
G01X50647Y51060D01*
G01X50637Y51060D01*
G01X50621Y51097D01*
G01X50598Y51171D01*
G01X50576Y51242D01*
G01X50551Y51301D01*
G01X50526Y51341D01*
G37*

%LPD*%
G36*
G01X57936Y51525D02*
G01X57894Y51530D01*
G01X57860Y51488D01*
G01X57850Y51452D01*
G01X57845Y51402D01*
G01X57842Y51343D01*
G01X57842Y51275D01*
G01X57844Y51204D01*
G01X57849Y51132D01*
G01X57856Y51063D01*
G01X57865Y50999D01*
G01X57875Y50944D01*
G01X57886Y50900D01*
G01X57899Y50872D01*
G01X57912Y50861D01*
G01X57933Y50873D01*
G01X57954Y50908D01*
G01X57972Y50959D01*
G01X57986Y51021D01*
G01X58002Y51090D01*
G01X58026Y51144D01*
G01X58058Y51181D01*
G01X58096Y51199D01*
G01X58139Y51199D01*
G01X58165Y51177D01*
G01X58179Y51127D01*
G01X58182Y51042D01*
G01X58186Y50979D01*
G01X58195Y50924D01*
G01X58210Y50880D01*
G01X58228Y50847D01*
G01X58248Y50829D01*
G01X58269Y50826D01*
G01X58289Y50841D01*
G01X58307Y50875D01*
G01X58314Y50916D01*
G01X58313Y50979D01*
G01X58306Y51056D01*
G01X58291Y51136D01*
G01X58265Y51238D01*
G01X58234Y51297D01*
G01X58189Y51323D01*
G01X58118Y51329D01*
G01X58058Y51333D01*
G01X58017Y51348D01*
G01X57993Y51374D01*
G01X57986Y51412D01*
G01X57971Y51484D01*
G01X57936Y51525D01*
G37*

%LPD*%
G36*
G01X58746Y51346D02*
G01X58686Y51349D01*
G01X58631Y51346D01*
G01X58588Y51338D01*
G01X58563Y51326D01*
G01X58543Y51285D01*
G01X58562Y51246D01*
G01X58613Y51217D01*
G01X58689Y51202D01*
G01X58732Y51198D01*
G01X58740Y51191D01*
G01X58713Y51180D01*
G01X58650Y51165D01*
G01X58574Y51143D01*
G01X58529Y51112D01*
G01X58508Y51063D01*
G01X58502Y50986D01*
G01X58507Y50904D01*
G01X58533Y50859D01*
G01X58596Y50839D01*
G01X58714Y50832D01*
G01X58925Y50825D01*
G01X58910Y51078D01*
G01X58905Y51158D01*
G01X58899Y51220D01*
G01X58890Y51265D01*
G01X58877Y51297D01*
G01X58857Y51319D01*
G01X58830Y51332D01*
G01X58794Y51340D01*
G01X58746Y51346D01*
G37*

%LPC*%
G36*
G01X58729Y51057D02*
G01X58702Y51060D01*
G01X58672Y51057D01*
G01X58643Y51046D01*
G01X58618Y51030D01*
G01X58600Y51011D01*
G01X58597Y50992D01*
G01X58609Y50976D01*
G01X58634Y50966D01*
G01X58671Y50962D01*
G01X58710Y50966D01*
G01X58743Y50976D01*
G01X58764Y50992D01*
G01X58772Y51011D01*
G01X58767Y51030D01*
G01X58752Y51046D01*
G01X58729Y51057D01*
G37*

%LPD*%
G36*
G01X62434Y51346D02*
G01X62364Y51346D01*
G01X62301Y51333D01*
G01X62246Y51307D01*
G01X62200Y51268D01*
G01X62162Y51218D01*
G01X62136Y51166D01*
G01X62123Y51113D01*
G01X62122Y51062D01*
G01X62132Y51012D01*
G01X62156Y50966D01*
G01X62190Y50923D01*
G01X62237Y50885D01*
G01X62288Y50858D01*
G01X62345Y50839D01*
G01X62403Y50828D01*
G01X62458Y50824D01*
G01X62508Y50828D01*
G01X62547Y50841D01*
G01X62573Y50860D01*
G01X62581Y50888D01*
G01X62569Y50909D01*
G01X62537Y50930D01*
G01X62490Y50949D01*
G01X62434Y50963D01*
G01X62367Y50982D01*
G01X62319Y51011D01*
G01X62291Y51046D01*
G01X62282Y51085D01*
G01X62292Y51124D01*
G01X62321Y51160D01*
G01X62369Y51189D01*
G01X62437Y51208D01*
G01X62499Y51223D01*
G01X62544Y51241D01*
G01X62571Y51261D01*
G01X62579Y51282D01*
G01X62570Y51302D01*
G01X62543Y51321D01*
G01X62497Y51335D01*
G01X62434Y51346D01*
G37*

%LPD*%
G36*
G01X59234Y51497D02*
G01X59215Y51503D01*
G01X59196Y51497D01*
G01X59180Y51482D01*
G01X59170Y51460D01*
G01X59166Y51433D01*
G01X59161Y51405D01*
G01X59148Y51378D01*
G01X59129Y51355D01*
G01X59105Y51341D01*
G01X59077Y51327D01*
G01X59068Y51310D01*
G01X59077Y51287D01*
G01X59105Y51253D01*
G01X59129Y51216D01*
G01X59148Y51160D01*
G01X59161Y51095D01*
G01X59166Y51027D01*
G01X59171Y50945D01*
G01X59190Y50891D01*
G01X59227Y50857D01*
G01X59286Y50836D01*
G01X59381Y50823D01*
G01X59451Y50837D01*
G01X59495Y50877D01*
G01X59510Y50941D01*
G01X59503Y50973D01*
G01X59482Y50989D01*
G01X59444Y50993D01*
G01X59387Y50982D01*
G01X59323Y50970D01*
G01X59286Y50979D01*
G01X59268Y51013D01*
G01X59264Y51079D01*
G01X59269Y51140D01*
G01X59286Y51179D01*
G01X59317Y51201D01*
G01X59363Y51208D01*
G01X59401Y51214D01*
G01X59432Y51229D01*
G01X59453Y51253D01*
G01X59461Y51282D01*
G01X59453Y51311D01*
G01X59432Y51334D01*
G01X59401Y51350D01*
G01X59363Y51355D01*
G01X59324Y51361D01*
G01X59293Y51377D01*
G01X59272Y51400D01*
G01X59264Y51429D01*
G01X59261Y51458D01*
G01X59250Y51481D01*
G01X59234Y51497D01*
G37*

%LPD*%
G36*
G01X51170Y51340D02*
G01X51134Y51355D01*
G01X51084Y51323D01*
G01X51074Y51293D01*
G01X51071Y51240D01*
G01X51074Y51169D01*
G01X51083Y51091D01*
G01X51097Y51011D01*
G01X51114Y50938D01*
G01X51133Y50880D01*
G01X51153Y50844D01*
G01X51175Y50829D01*
G01X51202Y50827D01*
G01X51231Y50835D01*
G01X51262Y50855D01*
G01X51296Y50878D01*
G01X51327Y50885D01*
G01X51356Y50877D01*
G01X51387Y50853D01*
G01X51420Y50828D01*
G01X51451Y50822D01*
G01X51480Y50833D01*
G01X51506Y50861D01*
G01X51529Y50906D01*
G01X51550Y50967D01*
G01X51567Y51044D01*
G01X51580Y51136D01*
G01X51590Y51250D01*
G01X51587Y51317D01*
G01X51570Y51347D01*
G01X51538Y51346D01*
G01X51509Y51324D01*
G01X51480Y51280D01*
G01X51456Y51222D01*
G01X51438Y51155D01*
G01X51425Y51091D01*
G01X51415Y51059D01*
G01X51406Y51061D01*
G01X51402Y51097D01*
G01X51395Y51140D01*
G01X51383Y51175D01*
G01X51365Y51199D01*
G01X51344Y51208D01*
G01X51321Y51199D01*
G01X51296Y51175D01*
G01X51271Y51140D01*
G01X51249Y51097D01*
G01X51226Y51046D01*
G01X51212Y51038D01*
G01X51205Y51078D01*
G01X51202Y51171D01*
G01X51193Y51279D01*
G01X51170Y51340D01*
G37*

%LPD*%
G36*
G01X61765Y51350D02*
G01X61699Y51355D01*
G01X61651Y51351D01*
G01X61612Y51341D01*
G01X61586Y51324D01*
G01X61576Y51304D01*
G01X61582Y51283D01*
G01X61597Y51261D01*
G01X61621Y51240D01*
G01X61650Y51226D01*
G01X61682Y51203D01*
G01X61706Y51168D01*
G01X61719Y51125D01*
G01X61723Y51079D01*
G01X61718Y51035D01*
G01X61703Y50998D01*
G01X61679Y50972D01*
G01X61646Y50962D01*
G01X61606Y50956D01*
G01X61585Y50943D01*
G01X61581Y50922D01*
G01X61591Y50899D01*
G01X61615Y50874D01*
G01X61650Y50852D01*
G01X61694Y50834D01*
G01X61745Y50823D01*
G01X61805Y50820D01*
G01X61857Y50826D01*
G01X61901Y50839D01*
G01X61933Y50857D01*
G01X61952Y50877D01*
G01X61955Y50900D01*
G01X61940Y50921D01*
G01X61904Y50941D01*
G01X61867Y50966D01*
G01X61841Y51011D01*
G01X61827Y51076D01*
G01X61822Y51164D01*
G01X61818Y51266D01*
G01X61802Y51324D01*
G01X61765Y51350D01*
G37*

%LPD*%
G36*
G01X60567Y51345D02*
G01X60505Y51346D01*
G01X60445Y51337D01*
G01X60394Y51321D01*
G01X60358Y51299D01*
G01X60335Y51262D01*
G01X60315Y51207D01*
G01X60302Y51142D01*
G01X60297Y51074D01*
G01X60303Y50992D01*
G01X60323Y50933D01*
G01X60362Y50888D01*
G01X60424Y50853D01*
G01X60492Y50828D01*
G01X60551Y50820D01*
G01X60601Y50828D01*
G01X60642Y50852D01*
G01X60674Y50893D01*
G01X60697Y50951D01*
G01X60710Y51025D01*
G01X60715Y51115D01*
G01X60711Y51235D01*
G01X60694Y51301D01*
G01X60650Y51332D01*
G01X60567Y51345D01*
G37*

%LPC*%
G36*
G01X60594Y51202D02*
G01X60546Y51208D01*
G01X60498Y51201D01*
G01X60467Y51181D01*
G01X60450Y51141D01*
G01X60445Y51081D01*
G01X60452Y51029D01*
G01X60471Y50993D01*
G01X60498Y50972D01*
G01X60530Y50968D01*
G01X60563Y50978D01*
G01X60593Y51004D01*
G01X60618Y51043D01*
G01X60633Y51098D01*
G01X60635Y51150D01*
G01X60623Y51184D01*
G01X60594Y51202D01*
G37*

%LPD*%
G36*
G01X55649Y51345D02*
G01X55587Y51346D01*
G01X55527Y51337D01*
G01X55476Y51321D01*
G01X55440Y51299D01*
G01X55417Y51262D01*
G01X55397Y51207D01*
G01X55384Y51142D01*
G01X55379Y51074D01*
G01X55385Y50992D01*
G01X55405Y50933D01*
G01X55444Y50888D01*
G01X55506Y50853D01*
G01X55574Y50828D01*
G01X55633Y50820D01*
G01X55683Y50828D01*
G01X55724Y50852D01*
G01X55756Y50893D01*
G01X55779Y50951D01*
G01X55793Y51025D01*
G01X55797Y51115D01*
G01X55794Y51235D01*
G01X55776Y51301D01*
G01X55731Y51332D01*
G01X55649Y51345D01*
G37*

%LPC*%
G36*
G01X55676Y51202D02*
G01X55628Y51208D01*
G01X55580Y51201D01*
G01X55549Y51181D01*
G01X55532Y51141D01*
G01X55526Y51081D01*
G01X55533Y51029D01*
G01X55553Y50993D01*
G01X55580Y50972D01*
G01X55612Y50968D01*
G01X55645Y50978D01*
G01X55675Y51004D01*
G01X55700Y51043D01*
G01X55714Y51098D01*
G01X55717Y51150D01*
G01X55705Y51184D01*
G01X55676Y51202D01*
G37*

%LPD*%
G36*
G01X57594Y51352D02*
G01X57533Y51356D01*
G01X57467Y51353D01*
G01X57403Y51342D01*
G01X57347Y51323D01*
G01X57307Y51296D01*
G01X57284Y51261D01*
G01X57265Y51207D01*
G01X57253Y51144D01*
G01X57248Y51077D01*
G01X57254Y51014D01*
G01X57270Y50959D01*
G01X57297Y50912D01*
G01X57333Y50874D01*
G01X57377Y50845D01*
G01X57429Y50827D01*
G01X57489Y50819D01*
G01X57554Y50823D01*
G01X57610Y50837D01*
G01X57649Y50855D01*
G01X57671Y50877D01*
G01X57676Y50901D01*
G01X57665Y50923D01*
G01X57637Y50944D01*
G01X57593Y50961D01*
G01X57534Y50971D01*
G01X57456Y50983D01*
G01X57405Y51004D01*
G01X57379Y51037D01*
G01X57371Y51084D01*
G01X57379Y51131D01*
G01X57404Y51165D01*
G01X57449Y51191D01*
G01X57514Y51207D01*
G01X57572Y51222D01*
G01X57622Y51243D01*
G01X57659Y51268D01*
G01X57678Y51294D01*
G01X57674Y51321D01*
G01X57643Y51340D01*
G01X57594Y51352D01*
G37*

%LPD*%
G36*
G01X62996Y51346D02*
G01X62928Y51348D01*
G01X62866Y51346D01*
G01X62819Y51337D01*
G01X62791Y51325D01*
G01X62766Y51291D01*
G01X62754Y51255D01*
G01X62755Y51217D01*
G01X62768Y51179D01*
G01X62794Y51142D01*
G01X62832Y51106D01*
G01X62881Y51073D01*
G01X62941Y51043D01*
G01X63125Y50963D01*
G01X62938Y50984D01*
G01X62843Y50992D01*
G01X62788Y50986D01*
G01X62765Y50964D01*
G01X62766Y50923D01*
G01X62778Y50890D01*
G01X62799Y50863D01*
G01X62828Y50842D01*
G01X62866Y50827D01*
G01X62911Y50819D01*
G01X62962Y50818D01*
G01X63020Y50824D01*
G01X63083Y50837D01*
G01X63135Y50857D01*
G01X63170Y50889D01*
G01X63188Y50929D01*
G01X63192Y50973D01*
G01X63179Y51019D01*
G01X63151Y51065D01*
G01X63109Y51108D01*
G01X63051Y51144D01*
G01X62928Y51206D01*
G01X63068Y51207D01*
G01X63131Y51213D01*
G01X63171Y51227D01*
G01X63189Y51247D01*
G01X63186Y51270D01*
G01X63165Y51294D01*
G01X63124Y51316D01*
G01X63068Y51334D01*
G01X62996Y51346D01*
G37*

%LPD*%
G36*
G01X61145Y51338D02*
G01X60937Y51345D01*
G01X60937Y51080D01*
G01X60938Y51010D01*
G01X60943Y50950D01*
G01X60950Y50901D01*
G01X60959Y50862D01*
G01X60970Y50836D01*
G01X60982Y50821D01*
G01X60994Y50818D01*
G01X61006Y50827D01*
G01X61017Y50850D01*
G01X61028Y50886D01*
G01X61037Y50935D01*
G01X61044Y50999D01*
G01X61052Y51061D01*
G01X61065Y51112D01*
G01X61080Y51152D01*
G01X61099Y51182D01*
G01X61120Y51200D01*
G01X61142Y51207D01*
G01X61164Y51203D01*
G01X61186Y51188D01*
G01X61207Y51162D01*
G01X61226Y51124D01*
G01X61242Y51074D01*
G01X61256Y51014D01*
G01X61269Y50949D01*
G01X61282Y50897D01*
G01X61297Y50858D01*
G01X61311Y50833D01*
G01X61325Y50821D01*
G01X61337Y50821D01*
G01X61349Y50834D01*
G01X61359Y50858D01*
G01X61366Y50894D01*
G01X61370Y50943D01*
G01X61372Y51002D01*
G01X61369Y51073D01*
G01X61355Y51331D01*
G01X61145Y51338D01*
G37*

%LPD*%
G36*
G01X64351Y51347D02*
G01X64301Y51354D01*
G01X64244Y51353D01*
G01X64184Y51344D01*
G01X64126Y51327D01*
G01X64072Y51302D01*
G01X64035Y51270D01*
G01X64008Y51226D01*
G01X63993Y51172D01*
G01X63988Y51113D01*
G01X63994Y51052D01*
G01X64011Y50994D01*
G01X64038Y50940D01*
G01X64076Y50896D01*
G01X64124Y50861D01*
G01X64179Y50837D01*
G01X64238Y50821D01*
G01X64295Y50815D01*
G01X64347Y50819D01*
G01X64389Y50832D01*
G01X64418Y50855D01*
G01X64429Y50888D01*
G01X64420Y50919D01*
G01X64397Y50942D01*
G01X64360Y50957D01*
G01X64312Y50962D01*
G01X64263Y50967D01*
G01X64218Y50981D01*
G01X64177Y51003D01*
G01X64142Y51030D01*
G01X64116Y51061D01*
G01X64100Y51093D01*
G01X64097Y51126D01*
G01X64107Y51157D01*
G01X64131Y51176D01*
G01X64172Y51193D01*
G01X64225Y51204D01*
G01X64284Y51208D01*
G01X64347Y51213D01*
G01X64392Y51226D01*
G01X64419Y51250D01*
G01X64429Y51282D01*
G01X64418Y51311D01*
G01X64391Y51332D01*
G01X64351Y51347D01*
G37*

%LPD*%
G36*
G01X65683Y51331D02*
G01X65215Y51356D01*
G01X65215Y51086D01*
G01X65219Y50980D01*
G01X65230Y50894D01*
G01X65245Y50836D01*
G01X65265Y50814D01*
G01X65283Y50828D01*
G01X65299Y50864D01*
G01X65310Y50918D01*
G01X65313Y50984D01*
G01X65318Y51052D01*
G01X65328Y51112D01*
G01X65344Y51158D01*
G01X65363Y51183D01*
G01X65383Y51182D01*
G01X65399Y51151D01*
G01X65408Y51094D01*
G01X65412Y51014D01*
G01X65416Y50927D01*
G01X65427Y50866D01*
G01X65443Y50829D01*
G01X65461Y50819D01*
G01X65480Y50833D01*
G01X65497Y50872D01*
G01X65510Y50936D01*
G01X65517Y51024D01*
G01X65524Y51232D01*
G01X65554Y51046D01*
G01X65565Y50987D01*
G01X65579Y50940D01*
G01X65592Y50904D01*
G01X65606Y50881D01*
G01X65620Y50869D01*
G01X65634Y50869D01*
G01X65647Y50880D01*
G01X65659Y50902D01*
G01X65669Y50935D01*
G01X65676Y50978D01*
G01X65681Y51033D01*
G01X65683Y51097D01*
G01X65683Y51331D01*
G37*

%LPD*%
G36*
G01X64877Y51350D02*
G01X64822Y51353D01*
G01X64767Y51350D01*
G01X64715Y51339D01*
G01X64670Y51321D01*
G01X64635Y51296D01*
G01X64604Y51256D01*
G01X64584Y51210D01*
G01X64574Y51159D01*
G01X64573Y51106D01*
G01X64581Y51053D01*
G01X64597Y51001D01*
G01X64621Y50951D01*
G01X64651Y50907D01*
G01X64686Y50869D01*
G01X64727Y50840D01*
G01X64772Y50821D01*
G01X64822Y50814D01*
G01X64871Y50821D01*
G01X64917Y50840D01*
G01X64957Y50869D01*
G01X64993Y50907D01*
G01X65023Y50951D01*
G01X65046Y51001D01*
G01X65063Y51053D01*
G01X65071Y51106D01*
G01X65070Y51159D01*
G01X65060Y51210D01*
G01X65040Y51256D01*
G01X65009Y51296D01*
G01X64974Y51321D01*
G01X64929Y51339D01*
G01X64877Y51350D01*
G37*

%LPC*%
G36*
G01X64867Y51201D02*
G01X64822Y51208D01*
G01X64776Y51201D01*
G01X64746Y51180D01*
G01X64729Y51142D01*
G01X64724Y51085D01*
G01X64729Y51028D01*
G01X64746Y50989D01*
G01X64776Y50969D01*
G01X64822Y50962D01*
G01X64867Y50969D01*
G01X64898Y50989D01*
G01X64915Y51028D01*
G01X64920Y51085D01*
G01X64915Y51142D01*
G01X64898Y51180D01*
G01X64867Y51201D01*
G37*

%LPD*%
G36*
G01X59916Y51338D02*
G01X59707Y51345D01*
G01X59707Y51080D01*
G01X59711Y50977D01*
G01X59721Y50892D01*
G01X59737Y50836D01*
G01X59756Y50814D01*
G01X59775Y50825D01*
G01X59791Y50856D01*
G01X59802Y50901D01*
G01X59805Y50956D01*
G01X59811Y51018D01*
G01X59826Y51073D01*
G01X59849Y51121D01*
G01X59877Y51158D01*
G01X59910Y51183D01*
G01X59945Y51194D01*
G01X59980Y51189D01*
G01X60014Y51166D01*
G01X60074Y51120D01*
G01X60118Y51114D01*
G01X60141Y51148D01*
G01X60141Y51220D01*
G01X60125Y51277D01*
G01X60090Y51312D01*
G01X60024Y51330D01*
G01X59916Y51338D01*
G37*

%LPD*%
G36*
G01X56879Y51345D02*
G01X56817Y51346D01*
G01X56756Y51337D01*
G01X56705Y51321D01*
G01X56670Y51299D01*
G01X56646Y51262D01*
G01X56627Y51208D01*
G01X56613Y51144D01*
G01X56608Y51077D01*
G01X56613Y51015D01*
G01X56628Y50961D01*
G01X56653Y50916D01*
G01X56687Y50879D01*
G01X56731Y50851D01*
G01X56786Y50830D01*
G01X56850Y50818D01*
G01X56925Y50814D01*
G01X56986Y50820D01*
G01X57027Y50836D01*
G01X57049Y50859D01*
G01X57052Y50886D01*
G01X57037Y50914D01*
G01X57005Y50940D01*
G01X56956Y50962D01*
G01X56891Y50976D01*
G01X56731Y50996D01*
G01X56894Y51003D01*
G01X56984Y51011D01*
G01X57031Y51034D01*
G01X57047Y51082D01*
G01X57042Y51171D01*
G01X57029Y51255D01*
G01X57003Y51305D01*
G01X56956Y51332D01*
G01X56879Y51345D01*
G37*

%LPC*%
G36*
G01X56897Y51198D02*
G01X56854Y51200D01*
G01X56812Y51198D01*
G01X56786Y51193D01*
G01X56779Y51185D01*
G01X56793Y51175D01*
G01X56822Y51168D01*
G01X56854Y51165D01*
G01X56887Y51168D01*
G01X56916Y51175D01*
G01X56930Y51185D01*
G01X56923Y51193D01*
G01X56897Y51198D01*
G37*

%LPD*%
G36*
G01X53832Y51351D02*
G01X53781Y51355D01*
G01X53736Y51351D01*
G01X53690Y51338D01*
G01X53649Y51319D01*
G01X53618Y51296D01*
G01X53593Y51259D01*
G01X53576Y51209D01*
G01X53565Y51149D01*
G01X53561Y51085D01*
G01X53565Y51020D01*
G01X53576Y50961D01*
G01X53593Y50910D01*
G01X53618Y50874D01*
G01X53649Y50850D01*
G01X53690Y50832D01*
G01X53736Y50819D01*
G01X53781Y50814D01*
G01X53832Y50819D01*
G01X53876Y50832D01*
G01X53914Y50853D01*
G01X53946Y50883D01*
G01X53970Y50921D01*
G01X53988Y50968D01*
G01X53998Y51023D01*
G01X54002Y51085D01*
G01X53998Y51147D01*
G01X53988Y51202D01*
G01X53970Y51249D01*
G01X53946Y51287D01*
G01X53914Y51317D01*
G01X53876Y51338D01*
G01X53832Y51351D01*
G37*

%LPC*%
G36*
G01X53827Y51186D02*
G01X53792Y51199D01*
G01X53724Y51187D01*
G01X53678Y51135D01*
G01X53666Y51067D01*
G01X53697Y51001D01*
G01X53762Y50970D01*
G01X53831Y50983D01*
G01X53882Y51028D01*
G01X53894Y51097D01*
G01X53881Y51131D01*
G01X53858Y51162D01*
G01X53827Y51186D01*
G37*

%LPD*%
G36*
G01X56407Y51553D02*
G01X56387Y51560D01*
G01X56364Y51557D01*
G01X56336Y51545D01*
G01X56304Y51522D01*
G01X56268Y51491D01*
G01X56235Y51463D01*
G01X56211Y51454D01*
G01X56194Y51463D01*
G01X56180Y51491D01*
G01X56166Y51515D01*
G01X56144Y51534D01*
G01X56117Y51547D01*
G01X56088Y51552D01*
G01X56069Y51548D01*
G01X56055Y51535D01*
G01X56042Y51511D01*
G01X56033Y51475D01*
G01X56026Y51425D01*
G01X56022Y51361D01*
G01X56019Y51281D01*
G01X56019Y51106D01*
G01X56022Y51036D01*
G01X56026Y50973D01*
G01X56032Y50919D01*
G01X56039Y50875D01*
G01X56048Y50842D01*
G01X56057Y50821D01*
G01X56067Y50814D01*
G01X56087Y50835D01*
G01X56102Y50890D01*
G01X56113Y50972D01*
G01X56118Y51073D01*
G01X56121Y51178D01*
G01X56129Y51247D01*
G01X56143Y51275D01*
G01X56161Y51263D01*
G01X56182Y51239D01*
G01X56207Y51225D01*
G01X56232Y51220D01*
G01X56256Y51227D01*
G01X56279Y51226D01*
G01X56298Y51195D01*
G01X56313Y51135D01*
G01X56323Y51049D01*
G01X56330Y50973D01*
G01X56340Y50915D01*
G01X56351Y50874D01*
G01X56364Y50850D01*
G01X56377Y50842D01*
G01X56390Y50850D01*
G01X56404Y50873D01*
G01X56416Y50910D01*
G01X56428Y50962D01*
G01X56438Y51027D01*
G01X56445Y51105D01*
G01X56451Y51196D01*
G01X56453Y51282D01*
G01X56453Y51355D01*
G01X56450Y51417D01*
G01X56444Y51468D01*
G01X56435Y51507D01*
G01X56422Y51536D01*
G01X56407Y51553D01*
G37*

%LPD*%
G54D10*
G01X114117Y45212D02*
G01X117165Y45212D01*
G01X117165Y39624D01*
G01X114117Y39624D01*
G01X114117Y45212D01*
G01X118033Y64009D02*
G01X118033Y64009D01*
G01X111683Y64009D01*
G01X111683Y68073D01*
G01X122097Y68073D01*
G01X122097Y64009D01*
G01X118033Y64009D01*
G01X118033Y64009D01*
G01X129357Y55864D02*
G01X126309Y55864D01*
G01X126309Y61452D01*
G01X129357Y61452D01*
G01X129357Y55864D01*
G54D11*
G01X71953Y70104D02*
G01X87193Y70104D01*
G54D10*
G01X39949Y16256D02*
G01X46045Y16256D01*
G01X46045Y10160D01*
G01X39949Y10160D01*
G01X39949Y16256D01*
G01X35366Y45233D02*
G01X24190Y45233D01*
G01X34604Y19833D02*
G01X24952Y19833D01*
G01X34604Y19833D02*
G01X34604Y22373D01*
G01X24952Y19833D02*
G01X24952Y22373D01*
G01X34604Y22373D02*
G01X37398Y22373D01*
G01X24952Y22373D02*
G01X22158Y22373D01*
G01X39303Y35327D02*
G01X39303Y27199D01*
G01X37398Y35327D02*
G01X37398Y38248D01*
G01X37398Y27199D02*
G01X37398Y22373D01*
G01X37398Y35327D02*
G01X39303Y35327D01*
G01X37398Y27199D02*
G01X39303Y27199D01*
G01X37398Y38248D02*
G01X35366Y38248D01*
G01X24190Y38248D02*
G01X22158Y38248D01*
G01X35366Y45233D02*
G01X35366Y38248D01*
G01X24190Y45233D02*
G01X24190Y38248D01*
G01X22158Y36089D02*
G01X18602Y36089D01*
G01X22158Y26437D02*
G01X18602Y26437D01*
G01X18602Y36089D02*
G01X18602Y26437D01*
G01X22158Y36089D02*
G01X22158Y38248D01*
G01X22158Y26437D02*
G01X22158Y22373D01*
G01X135366Y45233D02*
G01X124190Y45233D01*
G01X134604Y19833D02*
G01X124952Y19833D01*
G01X134604Y19833D02*
G01X134604Y22373D01*
G01X124952Y19833D02*
G01X124952Y22373D01*
G01X134604Y22373D02*
G01X137398Y22373D01*
G01X124952Y22373D02*
G01X122158Y22373D01*
G01X139303Y35327D02*
G01X139303Y27199D01*
G01X137398Y35327D02*
G01X137398Y38248D01*
G01X137398Y27199D02*
G01X137398Y22373D01*
G01X137398Y35327D02*
G01X139303Y35327D01*
G01X137398Y27199D02*
G01X139303Y27199D01*
G01X137398Y38248D02*
G01X135366Y38248D01*
G01X124190Y38248D02*
G01X122158Y38248D01*
G01X135366Y45233D02*
G01X135366Y38248D01*
G01X124190Y45233D02*
G01X124190Y38248D01*
G01X122158Y36089D02*
G01X118602Y36089D01*
G01X122158Y26437D02*
G01X118602Y26437D01*
G01X118602Y36089D02*
G01X118602Y26437D01*
G01X122158Y36089D02*
G01X122158Y38248D01*
G01X122158Y26437D02*
G01X122158Y22373D01*
G01X77033Y43179D02*
G01X77033Y45719D01*
G01X74493Y45719D01*
G01X74493Y43179D02*
G01X84653Y43179D01*
G01X84653Y48259D01*
G01X74493Y48259D01*
G01X74493Y43179D01*
G54D33*
G01X84653Y41909D02*
G01X87193Y41909D01*
G01X87193Y82549D02*
G01X87193Y41909D01*
G01X79573Y81549D02*
G01X76573Y81549D01*
G01X76573Y75549D01*
G01X82572Y75549D01*
G01X82572Y81549D01*
G01X79573Y81549D01*
G01X77073Y81549D02*
G01X77073Y85049D01*
G01X82072Y81549D02*
G01X82072Y85049D01*
G01X74493Y41909D02*
G01X71953Y41909D01*
G01X71953Y82549D01*
G01X77073Y82549D01*
G01X82072Y82549D02*
G01X87073Y82549D01*
G01X77073Y85049D02*
G01X82572Y85049D01*
G01X82572Y90050D01*
G01X77073Y85049D02*
G01X76573Y85049D01*
G01X76573Y90050D01*
G01X76573Y90050D02*
G01X82572Y90050D01*
G54D34*
G01X70937Y20827D02*
G01X70937Y20827D01*
G01X70937Y36067D01*
G01X50617Y36067D01*
G01X50617Y20827D01*
G01X70937Y20827D01*
G54D10*
G01X21730Y11362D02*
G01X27826Y11362D01*
G01X27826Y5266D01*
G01X21730Y5266D01*
G01X21730Y11362D01*
G01X113609Y16256D02*
G01X119705Y16256D01*
G01X119705Y10160D01*
G01X113609Y10160D01*
G01X113609Y16256D01*
G01X131730Y11362D02*
G01X137826Y11362D01*
G01X137826Y5266D01*
G01X131730Y5266D01*
G01X131730Y11362D01*
G01X35714Y47630D02*
G01X35714Y61600D01*
G01X35714Y61600D02*
G01X43842Y61600D01*
G01X35714Y47630D02*
G01X43842Y47630D01*
G01X43842Y47630D02*
G01X43842Y61600D01*
G01X115714Y47630D02*
G01X115714Y61600D01*
G01X115714Y61600D02*
G01X123842Y61600D01*
G01X115714Y47630D02*
G01X123842Y47630D01*
G01X123842Y47630D02*
G01X123842Y61600D01*
G54D35*
G01X110919Y46027D02*
G01X110919Y39326D01*
G01X107670Y39326D01*
G01X107670Y46027D01*
G01X110919Y46027D01*
G54D36*
G01X106243Y37774D02*
G01X106243Y37010D01*
G01X106243Y37774D02*
G01X106497Y37774D01*
G01X106606Y37736D01*
G01X106679Y37665D01*
G01X106715Y37592D01*
G01X106751Y37482D01*
G01X106751Y37302D01*
G01X106715Y37193D01*
G01X106679Y37119D01*
G01X106606Y37045D01*
G01X106497Y37010D01*
G01X106243Y37010D01*
G01X107246Y37774D02*
G01X107246Y37010D01*
G01X106992Y37774D02*
G01X107500Y37774D01*
G01X107741Y37774D02*
G01X107741Y37010D01*
G01X107741Y37774D02*
G01X108069Y37774D01*
G01X108178Y37736D01*
G01X108214Y37701D01*
G01X108249Y37630D01*
G01X108249Y37556D01*
G01X108214Y37482D01*
G01X108178Y37447D01*
G01X108069Y37411D01*
G01X107741Y37411D01*
G01X107995Y37411D02*
G01X108249Y37010D01*
G54D33*
G01X83347Y18542D02*
G01X82875Y17302D01*
G01X83347Y18542D02*
G01X83819Y17302D01*
G01X83052Y17713D02*
G01X83642Y17713D01*
G01X84211Y18542D02*
G01X84211Y17302D01*
G01X84211Y18542D02*
G01X84741Y18542D01*
G01X84919Y18483D01*
G01X84978Y18425D01*
G01X85036Y18305D01*
G01X85036Y18188D01*
G01X84978Y18069D01*
G01X84919Y18011D01*
G01X84741Y17952D01*
G01X84211Y17952D01*
G01X84625Y17952D02*
G01X85036Y17302D01*
G01X85427Y18542D02*
G01X85427Y17302D01*
G01X85427Y18542D02*
G01X85841Y18542D01*
G01X86019Y18483D01*
G01X86136Y18364D01*
G01X86194Y18247D01*
G01X86255Y18069D01*
G01X86255Y17774D01*
G01X86194Y17597D01*
G01X86136Y17477D01*
G01X86019Y17360D01*
G01X85841Y17302D01*
G01X85427Y17302D01*
G01X86644Y18542D02*
G01X86644Y17655D01*
G01X86705Y17477D01*
G01X86822Y17360D01*
G01X86999Y17302D01*
G01X87116Y17302D01*
G01X87294Y17360D01*
G01X87413Y17477D01*
G01X87472Y17655D01*
G01X87472Y18542D01*
G01X87861Y18542D02*
G01X87861Y17302D01*
G01X88252Y18542D02*
G01X88252Y17302D01*
G01X88252Y18542D02*
G01X89080Y17302D01*
G01X89080Y18542D02*
G01X89080Y17302D01*
G01X89824Y18542D02*
G01X89705Y18483D01*
G01X89588Y18364D01*
G01X89529Y18247D01*
G01X89468Y18069D01*
G01X89468Y17774D01*
G01X89529Y17597D01*
G01X89588Y17477D01*
G01X89705Y17360D01*
G01X89824Y17302D01*
G01X90060Y17302D01*
G01X90177Y17360D01*
G01X90296Y17477D01*
G01X90355Y17597D01*
G01X90413Y17774D01*
G01X90413Y18069D01*
G01X90355Y18247D01*
G01X90296Y18364D01*
G01X90177Y18483D01*
G01X90060Y18542D01*
G01X89824Y18542D01*
G01X91714Y18542D02*
G01X91714Y17302D01*
G01X91714Y18542D02*
G01X92247Y18542D01*
G01X92422Y18483D01*
G01X92483Y18425D01*
G01X92542Y18305D01*
G01X92542Y18127D01*
G01X92483Y18011D01*
G01X92422Y17952D01*
G01X92247Y17891D01*
G01X91714Y17891D01*
G01X92933Y18542D02*
G01X92933Y17302D01*
G01X92933Y18542D02*
G01X93464Y18542D01*
G01X93642Y18483D01*
G01X93700Y18425D01*
G01X93758Y18305D01*
G01X93758Y18188D01*
G01X93700Y18069D01*
G01X93642Y18011D01*
G01X93464Y17952D01*
G01X92933Y17952D01*
G01X93344Y17952D02*
G01X93758Y17302D01*
G01X94503Y18542D02*
G01X94386Y18483D01*
G01X94266Y18364D01*
G01X94208Y18247D01*
G01X94150Y18069D01*
G01X94150Y17774D01*
G01X94208Y17597D01*
G01X94266Y17477D01*
G01X94386Y17360D01*
G01X94503Y17302D01*
G01X94739Y17302D01*
G01X94858Y17360D01*
G01X94975Y17477D01*
G01X95036Y17597D01*
G01X95094Y17774D01*
G01X95094Y18069D01*
G01X95036Y18247D01*
G01X94975Y18364D01*
G01X94858Y18483D01*
G01X94739Y18542D01*
G01X94503Y18542D01*
G01X96395Y18542D02*
G01X96395Y17302D01*
G01X96395Y18542D02*
G01X96867Y17302D01*
G01X97340Y18542D02*
G01X96867Y17302D01*
G01X97340Y18542D02*
G01X97340Y17302D01*
G01X97731Y18542D02*
G01X97731Y17302D01*
G01X98120Y18542D02*
G01X98120Y17302D01*
G01X98120Y18542D02*
G01X98948Y17302D01*
G01X98948Y18542D02*
G01X98948Y17302D01*
G01X99336Y18542D02*
G01X99336Y17302D01*
G01X101345Y18542D02*
G01X100756Y18542D01*
G01X100695Y18011D01*
G01X100756Y18069D01*
G01X100934Y18127D01*
G01X101109Y18127D01*
G01X101287Y18069D01*
G01X101406Y17952D01*
G01X101465Y17774D01*
G01X101465Y17655D01*
G01X101406Y17477D01*
G01X101287Y17360D01*
G01X101109Y17302D01*
G01X100934Y17302D01*
G01X100756Y17360D01*
G01X100695Y17419D01*
G01X100637Y17538D01*
G01X101853Y18542D02*
G01X102328Y17302D01*
G01X102801Y18542D02*
G01X102328Y17302D01*
G01X70175Y47759D02*
G01X71414Y47759D01*
G01X70175Y47759D02*
G01X71414Y48587D01*
G01X70175Y48587D02*
G01X71414Y48587D01*
G01X70175Y48976D02*
G01X71414Y48976D01*
G01X70175Y48976D02*
G01X70175Y49509D01*
G01X70233Y49684D01*
G01X70291Y49745D01*
G01X70411Y49804D01*
G01X70528Y49804D01*
G01X70647Y49745D01*
G01X70705Y49684D01*
G01X70764Y49509D01*
G01X70764Y48976D01*
G01X70764Y49390D02*
G01X71414Y49804D01*
G01X70175Y50195D02*
G01X71414Y50195D01*
G01X70175Y50195D02*
G01X70175Y50962D01*
G01X70764Y50195D02*
G01X70764Y50667D01*
G01X70469Y51412D02*
G01X70411Y51412D01*
G01X70291Y51470D01*
G01X70233Y51528D01*
G01X70175Y51648D01*
G01X70175Y51884D01*
G01X70233Y52001D01*
G01X70291Y52062D01*
G01X70411Y52120D01*
G01X70528Y52120D01*
G01X70647Y52062D01*
G01X70825Y51943D01*
G01X71414Y51351D01*
G01X71414Y52179D01*
G01X70175Y53159D02*
G01X71003Y52570D01*
G01X71003Y53456D01*
G01X70175Y53159D02*
G01X71414Y53159D01*
G01X70175Y53845D02*
G01X71414Y53845D01*
G01X71414Y53845D02*
G01X71414Y54554D01*
G01X70175Y55300D02*
G01X70233Y55123D01*
G01X70411Y55003D01*
G01X70705Y54945D01*
G01X70883Y54945D01*
G01X71178Y55003D01*
G01X71356Y55123D01*
G01X71414Y55300D01*
G01X71414Y55417D01*
G01X71356Y55595D01*
G01X71178Y55712D01*
G01X70883Y55773D01*
G01X70705Y55773D01*
G01X70411Y55712D01*
G01X70233Y55595D01*
G01X70175Y55417D01*
G01X70175Y55300D01*
G01X70411Y56161D02*
G01X70352Y56281D01*
G01X70175Y56459D01*
G01X71414Y56459D01*
G01X70352Y57378D02*
G01X71414Y57378D01*
G01X70883Y56847D02*
G01X70883Y57912D01*
G54D36*
G01X102433Y33637D02*
G01X102433Y32872D01*
G01X102179Y33637D02*
G01X102687Y33637D01*
G01X102928Y33637D02*
G01X103436Y32872D01*
G01X103436Y33637D02*
G01X102928Y32872D01*
G01X104332Y33782D02*
G01X103677Y32618D01*
G01X104571Y33637D02*
G01X104571Y32872D01*
G01X104571Y33637D02*
G01X104825Y33637D01*
G01X104934Y33599D01*
G01X105008Y33528D01*
G01X105044Y33454D01*
G01X105079Y33345D01*
G01X105079Y33164D01*
G01X105044Y33055D01*
G01X105008Y32981D01*
G01X104934Y32908D01*
G01X104825Y32872D01*
G01X104571Y32872D01*
G01X105539Y33637D02*
G01X105465Y33599D01*
G01X105394Y33528D01*
G01X105356Y33454D01*
G01X105320Y33345D01*
G01X105320Y33164D01*
G01X105356Y33055D01*
G01X105394Y32981D01*
G01X105465Y32908D01*
G01X105539Y32872D01*
G01X105684Y32872D01*
G01X105757Y32908D01*
G01X105828Y32981D01*
G01X105867Y33055D01*
G01X105902Y33164D01*
G01X105902Y33345D01*
G01X105867Y33454D01*
G01X105828Y33528D01*
G01X105757Y33599D01*
G01X105684Y33637D01*
G01X105539Y33637D01*
G01X102433Y31242D02*
G01X102433Y30477D01*
G01X102433Y31242D02*
G01X102760Y31242D01*
G01X102869Y31203D01*
G01X102905Y31168D01*
G01X102941Y31097D01*
G01X102941Y31023D01*
G01X102905Y30949D01*
G01X102869Y30914D01*
G01X102760Y30878D01*
G01X102433Y30878D01*
G01X102687Y30878D02*
G01X102941Y30477D01*
G01X103182Y31242D02*
G01X103690Y30477D01*
G01X103690Y31242D02*
G01X103182Y30477D01*
G01X104586Y31386D02*
G01X103931Y30223D01*
G01X104825Y31242D02*
G01X104825Y30477D01*
G01X104825Y31242D02*
G01X105079Y31242D01*
G01X105188Y31203D01*
G01X105262Y31132D01*
G01X105298Y31059D01*
G01X105333Y30949D01*
G01X105333Y30769D01*
G01X105298Y30660D01*
G01X105262Y30586D01*
G01X105188Y30513D01*
G01X105079Y30477D01*
G01X104825Y30477D01*
G01X105574Y31097D02*
G01X105648Y31132D01*
G01X105757Y31242D01*
G01X105757Y30477D01*
G01X103703Y28630D02*
G01X103995Y27866D01*
G01X104284Y28630D02*
G01X103995Y27866D01*
G01X105069Y28448D02*
G01X105033Y28521D01*
G01X104960Y28592D01*
G01X104889Y28630D01*
G01X104741Y28630D01*
G01X104670Y28592D01*
G01X104597Y28521D01*
G01X104561Y28448D01*
G01X104525Y28338D01*
G01X104525Y28158D01*
G01X104561Y28049D01*
G01X104597Y27975D01*
G01X104670Y27901D01*
G01X104741Y27866D01*
G01X104889Y27866D01*
G01X104960Y27901D01*
G01X105033Y27975D01*
G01X105069Y28049D01*
G01X105856Y28448D02*
G01X105818Y28521D01*
G01X105747Y28592D01*
G01X105674Y28630D01*
G01X105529Y28630D01*
G01X105455Y28592D01*
G01X105381Y28521D01*
G01X105346Y28448D01*
G01X105310Y28338D01*
G01X105310Y28158D01*
G01X105346Y28049D01*
G01X105381Y27975D01*
G01X105455Y27901D01*
G01X105529Y27866D01*
G01X105674Y27866D01*
G01X105747Y27901D01*
G01X105818Y27975D01*
G01X105856Y28049D01*
G01X104503Y25908D02*
G01X104465Y25981D01*
G01X104393Y26052D01*
G01X104320Y26090D01*
G01X104175Y26090D01*
G01X104101Y26052D01*
G01X104030Y25981D01*
G01X103992Y25908D01*
G01X103957Y25798D01*
G01X103957Y25618D01*
G01X103992Y25509D01*
G01X104030Y25435D01*
G01X104101Y25361D01*
G01X104175Y25326D01*
G01X104320Y25326D01*
G01X104393Y25361D01*
G01X104465Y25435D01*
G01X104503Y25509D01*
G01X104503Y25618D01*
G01X104320Y25618D02*
G01X104503Y25618D01*
G01X104741Y26090D02*
G01X104741Y25326D01*
G01X104741Y26090D02*
G01X105252Y25326D01*
G01X105252Y26090D02*
G01X105252Y25326D01*
G01X105491Y26090D02*
G01X105491Y25326D01*
G01X105491Y26090D02*
G01X105745Y26090D01*
G01X105854Y26052D01*
G01X105928Y25981D01*
G01X105963Y25908D01*
G01X106001Y25798D01*
G01X106001Y25618D01*
G01X105963Y25509D01*
G01X105928Y25435D01*
G01X105854Y25361D01*
G01X105745Y25326D01*
G01X105491Y25326D01*
G01X103449Y24130D02*
G01X103449Y23365D01*
G01X103449Y24130D02*
G01X103776Y24130D01*
G01X103885Y24091D01*
G01X103921Y24056D01*
G01X103957Y23985D01*
G01X103957Y23911D01*
G01X103921Y23837D01*
G01X103885Y23802D01*
G01X103776Y23766D01*
G01X103449Y23766D01*
G01X103703Y23766D02*
G01X103957Y23365D01*
G01X104487Y24130D02*
G01X104198Y23365D01*
G01X104487Y24130D02*
G01X104779Y23365D01*
G01X104307Y23619D02*
G01X104670Y23619D01*
G01X105018Y24130D02*
G01X105201Y23365D01*
G01X105384Y24130D02*
G01X105201Y23365D01*
G01X105384Y24130D02*
G01X105564Y23365D01*
G01X105747Y24130D02*
G01X105564Y23365D01*
G01X78849Y32367D02*
G01X78557Y31602D01*
G01X78849Y32367D02*
G01X79138Y31602D01*
G01X78666Y31856D02*
G01X79029Y31856D01*
G01X79743Y32367D02*
G01X79379Y31856D01*
G01X79923Y31856D01*
G01X79743Y32367D02*
G01X79743Y31602D01*
G01X80418Y32512D02*
G01X80345Y32438D01*
G01X80274Y32329D01*
G01X80200Y32184D01*
G01X80164Y32004D01*
G01X80164Y31856D01*
G01X80200Y31676D01*
G01X80274Y31531D01*
G01X80345Y31422D01*
G01X80418Y31348D01*
G01X81168Y32258D02*
G01X81094Y32329D01*
G01X80985Y32367D01*
G01X80840Y32367D01*
G01X80731Y32329D01*
G01X80657Y32258D01*
G01X80657Y32184D01*
G01X80695Y32113D01*
G01X80731Y32075D01*
G01X80804Y32039D01*
G01X81023Y31965D01*
G01X81094Y31930D01*
G01X81132Y31894D01*
G01X81168Y31821D01*
G01X81168Y31711D01*
G01X81094Y31638D01*
G01X80985Y31602D01*
G01X80840Y31602D01*
G01X80731Y31638D01*
G01X80657Y31711D01*
G01X81406Y32367D02*
G01X81406Y31602D01*
G01X81406Y32367D02*
G01X81663Y32367D01*
G01X81772Y32329D01*
G01X81843Y32258D01*
G01X81881Y32184D01*
G01X81917Y32075D01*
G01X81917Y31894D01*
G01X81881Y31785D01*
G01X81843Y31711D01*
G01X81772Y31638D01*
G01X81663Y31602D01*
G01X81406Y31602D01*
G01X82448Y32367D02*
G01X82156Y31602D01*
G01X82448Y32367D02*
G01X82737Y31602D01*
G01X82265Y31856D02*
G01X82628Y31856D01*
G01X82979Y32512D02*
G01X83052Y32438D01*
G01X83123Y32329D01*
G01X83197Y32184D01*
G01X83233Y32004D01*
G01X83233Y31856D01*
G01X83197Y31676D01*
G01X83123Y31531D01*
G01X83052Y31422D01*
G01X82979Y31348D01*
G01X78849Y29827D02*
G01X78557Y29062D01*
G01X78849Y29827D02*
G01X79138Y29062D01*
G01X78666Y29316D02*
G01X79029Y29316D01*
G01X79814Y29827D02*
G01X79451Y29827D01*
G01X79415Y29499D01*
G01X79451Y29535D01*
G01X79560Y29573D01*
G01X79669Y29573D01*
G01X79778Y29535D01*
G01X79852Y29464D01*
G01X79887Y29354D01*
G01X79887Y29281D01*
G01X79852Y29171D01*
G01X79778Y29098D01*
G01X79669Y29062D01*
G01X79560Y29062D01*
G01X79451Y29098D01*
G01X79415Y29136D01*
G01X79379Y29207D01*
G01X80383Y29972D02*
G01X80309Y29898D01*
G01X80235Y29789D01*
G01X80164Y29644D01*
G01X80126Y29464D01*
G01X80126Y29316D01*
G01X80164Y29136D01*
G01X80235Y28991D01*
G01X80309Y28882D01*
G01X80383Y28808D01*
G01X81132Y29718D02*
G01X81058Y29789D01*
G01X80949Y29827D01*
G01X80804Y29827D01*
G01X80695Y29789D01*
G01X80622Y29718D01*
G01X80622Y29644D01*
G01X80657Y29573D01*
G01X80695Y29535D01*
G01X80766Y29499D01*
G01X80985Y29425D01*
G01X81058Y29390D01*
G01X81094Y29354D01*
G01X81132Y29281D01*
G01X81132Y29171D01*
G01X81058Y29098D01*
G01X80949Y29062D01*
G01X80804Y29062D01*
G01X80695Y29098D01*
G01X80622Y29171D01*
G01X81917Y29644D02*
G01X81881Y29718D01*
G01X81808Y29789D01*
G01X81734Y29827D01*
G01X81589Y29827D01*
G01X81516Y29789D01*
G01X81444Y29718D01*
G01X81406Y29644D01*
G01X81371Y29535D01*
G01X81371Y29354D01*
G01X81406Y29245D01*
G01X81444Y29171D01*
G01X81516Y29098D01*
G01X81589Y29062D01*
G01X81734Y29062D01*
G01X81808Y29098D01*
G01X81881Y29171D01*
G01X81917Y29245D01*
G01X82156Y29827D02*
G01X82156Y29062D01*
G01X82156Y29062D02*
G01X82593Y29062D01*
G01X82834Y29972D02*
G01X82905Y29898D01*
G01X82979Y29789D01*
G01X83052Y29644D01*
G01X83088Y29464D01*
G01X83088Y29316D01*
G01X83052Y29136D01*
G01X82979Y28991D01*
G01X82905Y28882D01*
G01X82834Y28808D01*
G01X96083Y24058D02*
G01X96375Y23294D01*
G01X96664Y24058D02*
G01X96375Y23294D01*
G01X97449Y23876D02*
G01X97413Y23949D01*
G01X97340Y24020D01*
G01X97269Y24058D01*
G01X97121Y24058D01*
G01X97050Y24020D01*
G01X96977Y23949D01*
G01X96941Y23876D01*
G01X96905Y23766D01*
G01X96905Y23586D01*
G01X96941Y23477D01*
G01X96977Y23403D01*
G01X97050Y23329D01*
G01X97121Y23294D01*
G01X97269Y23294D01*
G01X97340Y23329D01*
G01X97413Y23403D01*
G01X97449Y23477D01*
G01X98236Y23876D02*
G01X98198Y23949D01*
G01X98127Y24020D01*
G01X98054Y24058D01*
G01X97909Y24058D01*
G01X97835Y24020D01*
G01X97761Y23949D01*
G01X97726Y23876D01*
G01X97690Y23766D01*
G01X97690Y23586D01*
G01X97726Y23477D01*
G01X97761Y23403D01*
G01X97835Y23329D01*
G01X97909Y23294D01*
G01X98054Y23294D01*
G01X98127Y23329D01*
G01X98198Y23403D01*
G01X98236Y23477D01*
G01X98877Y24058D02*
G01X98877Y23294D01*
G01X98877Y24058D02*
G01X99204Y24058D01*
G01X99313Y24020D01*
G01X99349Y23985D01*
G01X99385Y23914D01*
G01X99385Y23840D01*
G01X99349Y23766D01*
G01X99313Y23731D01*
G01X99204Y23695D01*
G01X98877Y23695D01*
G01X99131Y23695D02*
G01X99385Y23294D01*
G01X100134Y23949D02*
G01X100063Y24020D01*
G01X99953Y24058D01*
G01X99806Y24058D01*
G01X99699Y24020D01*
G01X99626Y23949D01*
G01X99626Y23876D01*
G01X99661Y23804D01*
G01X99699Y23766D01*
G01X99771Y23731D01*
G01X99989Y23657D01*
G01X100063Y23622D01*
G01X100098Y23586D01*
G01X100134Y23512D01*
G01X100134Y23403D01*
G01X100063Y23329D01*
G01X99953Y23294D01*
G01X99806Y23294D01*
G01X99699Y23329D01*
G01X99626Y23403D01*
G01X100629Y24058D02*
G01X100629Y23294D01*
G01X100375Y24058D02*
G01X100883Y24058D01*
G01X80081Y23515D02*
G01X80845Y23515D01*
G01X80081Y23515D02*
G01X80845Y23807D01*
G01X80081Y24096D02*
G01X80845Y23807D01*
G01X80081Y24096D02*
G01X80845Y24096D01*
G01X80081Y24554D02*
G01X80119Y24483D01*
G01X80190Y24409D01*
G01X80263Y24373D01*
G01X80373Y24338D01*
G01X80553Y24338D01*
G01X80662Y24373D01*
G01X80736Y24409D01*
G01X80810Y24483D01*
G01X80845Y24554D01*
G01X80845Y24701D01*
G01X80810Y24772D01*
G01X80736Y24846D01*
G01X80662Y24881D01*
G01X80553Y24919D01*
G01X80373Y24919D01*
G01X80263Y24881D01*
G01X80190Y24846D01*
G01X80119Y24772D01*
G01X80081Y24701D01*
G01X80081Y24554D01*
G01X80190Y25669D02*
G01X80119Y25595D01*
G01X80081Y25486D01*
G01X80081Y25341D01*
G01X80119Y25232D01*
G01X80190Y25158D01*
G01X80263Y25158D01*
G01X80335Y25194D01*
G01X80373Y25232D01*
G01X80408Y25303D01*
G01X80482Y25521D01*
G01X80517Y25595D01*
G01X80553Y25631D01*
G01X80627Y25669D01*
G01X80736Y25669D01*
G01X80810Y25595D01*
G01X80845Y25486D01*
G01X80845Y25341D01*
G01X80810Y25232D01*
G01X80736Y25158D01*
G01X80081Y25907D02*
G01X80845Y25907D01*
G01X82113Y23515D02*
G01X82877Y23515D01*
G01X82113Y23515D02*
G01X82877Y23807D01*
G01X82113Y24096D02*
G01X82877Y23807D01*
G01X82113Y24096D02*
G01X82877Y24096D01*
G01X82113Y24338D02*
G01X82877Y24338D01*
G01X82222Y25085D02*
G01X82151Y25013D01*
G01X82113Y24904D01*
G01X82113Y24759D01*
G01X82151Y24650D01*
G01X82222Y24577D01*
G01X82295Y24577D01*
G01X82367Y24612D01*
G01X82405Y24650D01*
G01X82440Y24721D01*
G01X82514Y24940D01*
G01X82549Y25013D01*
G01X82585Y25049D01*
G01X82659Y25085D01*
G01X82768Y25085D01*
G01X82842Y25013D01*
G01X82877Y24904D01*
G01X82877Y24759D01*
G01X82842Y24650D01*
G01X82768Y24577D01*
G01X82113Y25544D02*
G01X82151Y25471D01*
G01X82222Y25399D01*
G01X82295Y25361D01*
G01X82405Y25326D01*
G01X82585Y25326D01*
G01X82694Y25361D01*
G01X82768Y25399D01*
G01X82842Y25471D01*
G01X82877Y25544D01*
G01X82877Y25689D01*
G01X82842Y25763D01*
G01X82768Y25834D01*
G01X82694Y25872D01*
G01X82585Y25907D01*
G01X82405Y25907D01*
G01X82295Y25872D01*
G01X82222Y25834D01*
G01X82151Y25763D01*
G01X82113Y25689D01*
G01X82113Y25544D01*
G01X84254Y24117D02*
G01X84183Y24046D01*
G01X84145Y23936D01*
G01X84145Y23792D01*
G01X84183Y23682D01*
G01X84254Y23609D01*
G01X84327Y23609D01*
G01X84399Y23644D01*
G01X84437Y23682D01*
G01X84472Y23754D01*
G01X84546Y23972D01*
G01X84581Y24046D01*
G01X84617Y24081D01*
G01X84691Y24117D01*
G01X84800Y24117D01*
G01X84874Y24046D01*
G01X84909Y23936D01*
G01X84909Y23792D01*
G01X84874Y23682D01*
G01X84800Y23609D01*
G01X84327Y24904D02*
G01X84254Y24866D01*
G01X84183Y24795D01*
G01X84145Y24721D01*
G01X84145Y24577D01*
G01X84183Y24503D01*
G01X84254Y24432D01*
G01X84327Y24394D01*
G01X84437Y24358D01*
G01X84617Y24358D01*
G01X84726Y24394D01*
G01X84800Y24432D01*
G01X84874Y24503D01*
G01X84909Y24577D01*
G01X84909Y24721D01*
G01X84874Y24795D01*
G01X84800Y24866D01*
G01X84726Y24904D01*
G01X84145Y25143D02*
G01X84909Y25143D01*
G01X84145Y25654D02*
G01X84655Y25143D01*
G01X84472Y25326D02*
G01X84909Y25654D01*
G54D37*
G01X115402Y38602D02*
G01X115351Y38707D01*
G01X115247Y38808D01*
G01X115143Y38862D01*
G01X114934Y38862D01*
G01X114833Y38808D01*
G01X114729Y38707D01*
G01X114675Y38602D01*
G01X114625Y38447D01*
G01X114625Y38188D01*
G01X114675Y38031D01*
G01X114729Y37929D01*
G01X114833Y37825D01*
G01X114934Y37772D01*
G01X115143Y37772D01*
G01X115247Y37825D01*
G01X115351Y37929D01*
G01X115402Y38031D01*
G01X115795Y38602D02*
G01X115795Y38653D01*
G01X115846Y38757D01*
G01X115900Y38808D01*
G01X116004Y38862D01*
G01X116209Y38862D01*
G01X116314Y38808D01*
G01X116364Y38757D01*
G01X116418Y38653D01*
G01X116418Y38549D01*
G01X116364Y38447D01*
G01X116263Y38290D01*
G01X115745Y37772D01*
G01X116469Y37772D01*
G54D33*
G01X116723Y70126D02*
G01X116603Y70246D01*
G01X116425Y70304D01*
G01X116189Y70304D01*
G01X116014Y70246D01*
G01X115895Y70126D01*
G01X115895Y70010D01*
G01X115953Y69890D01*
G01X116014Y69832D01*
G01X116131Y69773D01*
G01X116486Y69654D01*
G01X116603Y69596D01*
G01X116662Y69537D01*
G01X116723Y69418D01*
G01X116723Y69240D01*
G01X116603Y69123D01*
G01X116425Y69065D01*
G01X116189Y69065D01*
G01X116014Y69123D01*
G01X115895Y69240D01*
G01X117111Y70304D02*
G01X117408Y69065D01*
G01X117703Y70304D02*
G01X117408Y69065D01*
G01X117703Y70304D02*
G01X117998Y69065D01*
G01X118295Y70304D02*
G01X117998Y69065D01*
G54D36*
G01X36210Y62484D02*
G01X36974Y62484D01*
G01X36210Y62484D02*
G01X36210Y62738D01*
G01X36248Y62847D01*
G01X36319Y62920D01*
G01X36393Y62956D01*
G01X36502Y62992D01*
G01X36682Y62992D01*
G01X36791Y62956D01*
G01X36865Y62920D01*
G01X36939Y62847D01*
G01X36974Y62738D01*
G01X36974Y62484D01*
G01X36210Y63487D02*
G01X36974Y63487D01*
G01X36210Y63233D02*
G01X36210Y63741D01*
G01X36210Y63982D02*
G01X36974Y63982D01*
G01X36210Y63982D02*
G01X36210Y64310D01*
G01X36248Y64419D01*
G01X36283Y64455D01*
G01X36354Y64490D01*
G01X36428Y64490D01*
G01X36502Y64455D01*
G01X36537Y64419D01*
G01X36573Y64310D01*
G01X36573Y63982D01*
G01X36573Y64236D02*
G01X36974Y64490D01*
G01X38750Y62664D02*
G01X39514Y62664D01*
G01X38750Y62410D02*
G01X38750Y62918D01*
G01X38750Y63159D02*
G01X39514Y63667D01*
G01X38750Y63667D02*
G01X39514Y63159D01*
G01X38750Y64127D02*
G01X38788Y64053D01*
G01X38859Y63980D01*
G01X38933Y63944D01*
G01X39042Y63908D01*
G01X39222Y63908D01*
G01X39331Y63944D01*
G01X39405Y63980D01*
G01X39479Y64053D01*
G01X39514Y64127D01*
G01X39514Y64272D01*
G01X39479Y64345D01*
G01X39405Y64416D01*
G01X39331Y64455D01*
G01X39222Y64490D01*
G01X39042Y64490D01*
G01X38933Y64455D01*
G01X38859Y64416D01*
G01X38788Y64345D01*
G01X38750Y64272D01*
G01X38750Y64127D01*
G01X41290Y62992D02*
G01X42054Y62992D01*
G01X41290Y62992D02*
G01X41290Y63319D01*
G01X41328Y63428D01*
G01X41363Y63464D01*
G01X41434Y63500D01*
G01X41508Y63500D01*
G01X41582Y63464D01*
G01X41617Y63428D01*
G01X41653Y63319D01*
G01X41653Y62992D01*
G01X41653Y63246D02*
G01X42054Y63500D01*
G01X41290Y63741D02*
G01X42054Y64249D01*
G01X41290Y64249D02*
G01X42054Y63741D01*
G01X41290Y64490D02*
G01X42054Y64490D01*
G01X43576Y62445D02*
G01X44340Y62737D01*
G01X43576Y63027D02*
G01X44340Y62737D01*
G01X43759Y63812D02*
G01X43685Y63776D01*
G01X43614Y63703D01*
G01X43576Y63632D01*
G01X43576Y63484D01*
G01X43614Y63413D01*
G01X43685Y63339D01*
G01X43759Y63304D01*
G01X43868Y63268D01*
G01X44048Y63268D01*
G01X44157Y63304D01*
G01X44231Y63339D01*
G01X44305Y63413D01*
G01X44340Y63484D01*
G01X44340Y63632D01*
G01X44305Y63703D01*
G01X44231Y63776D01*
G01X44157Y63812D01*
G01X43759Y64599D02*
G01X43685Y64561D01*
G01X43614Y64490D01*
G01X43576Y64416D01*
G01X43576Y64272D01*
G01X43614Y64198D01*
G01X43685Y64124D01*
G01X43759Y64089D01*
G01X43868Y64053D01*
G01X44048Y64053D01*
G01X44157Y64089D01*
G01X44231Y64124D01*
G01X44305Y64198D01*
G01X44340Y64272D01*
G01X44340Y64416D01*
G01X44305Y64490D01*
G01X44231Y64561D01*
G01X44157Y64599D01*
G01X46370Y63004D02*
G01X46296Y62966D01*
G01X46225Y62895D01*
G01X46187Y62821D01*
G01X46187Y62677D01*
G01X46225Y62603D01*
G01X46296Y62532D01*
G01X46370Y62494D01*
G01X46479Y62458D01*
G01X46659Y62458D01*
G01X46768Y62494D01*
G01X46842Y62532D01*
G01X46916Y62603D01*
G01X46951Y62677D01*
G01X46951Y62821D01*
G01X46916Y62895D01*
G01X46842Y62966D01*
G01X46768Y63004D01*
G01X46659Y63004D01*
G01X46659Y62821D02*
G01X46659Y63004D01*
G01X46187Y63243D02*
G01X46951Y63243D01*
G01X46187Y63243D02*
G01X46951Y63753D01*
G01X46187Y63753D02*
G01X46951Y63753D01*
G01X46187Y63992D02*
G01X46951Y63992D01*
G01X46187Y63992D02*
G01X46187Y64246D01*
G01X46225Y64355D01*
G01X46296Y64429D01*
G01X46370Y64465D01*
G01X46479Y64503D01*
G01X46659Y64503D01*
G01X46768Y64465D01*
G01X46842Y64429D01*
G01X46916Y64355D01*
G01X46951Y64246D01*
G01X46951Y63992D01*
G54D33*
G01X130649Y57396D02*
G01X130596Y57500D01*
G01X130492Y57604D01*
G01X130388Y57658D01*
G01X130177Y57658D01*
G01X130073Y57604D01*
G01X129969Y57500D01*
G01X129918Y57396D01*
G01X129865Y57238D01*
G01X129865Y56977D01*
G01X129918Y56822D01*
G01X129969Y56718D01*
G01X130073Y56611D01*
G01X130177Y56560D01*
G01X130388Y56560D01*
G01X130492Y56611D01*
G01X130596Y56718D01*
G01X130649Y56822D01*
G01X130649Y56977D01*
G01X130388Y56977D02*
G01X130649Y56977D01*
G01X130995Y57658D02*
G01X130995Y56560D01*
G01X130995Y57658D02*
G01X131726Y56560D01*
G01X131726Y57658D02*
G01X131726Y56560D01*
G01X132069Y57658D02*
G01X132069Y56560D01*
G01X132069Y57658D02*
G01X132438Y57658D01*
G01X132592Y57604D01*
G01X132697Y57500D01*
G01X132750Y57396D01*
G01X132803Y57238D01*
G01X132803Y56977D01*
G01X132750Y56822D01*
G01X132697Y56718D01*
G01X132592Y56611D01*
G01X132438Y56560D01*
G01X132069Y56560D01*
G54D38*
G01X101267Y42024D02*
G01X101838Y42024D01*
G01X101526Y41610D01*
G01X101683Y41610D01*
G01X101785Y41556D01*
G01X101838Y41506D01*
G01X101889Y41351D01*
G01X101889Y41247D01*
G01X101838Y41089D01*
G01X101734Y40985D01*
G01X101579Y40934D01*
G01X101422Y40934D01*
G01X101267Y40985D01*
G01X101213Y41038D01*
G01X101163Y41142D01*
G01X102285Y41193D02*
G01X102232Y41142D01*
G01X102285Y41089D01*
G01X102336Y41142D01*
G01X102285Y41193D01*
G01X102783Y42024D02*
G01X103355Y42024D01*
G01X103042Y41610D01*
G01X103200Y41610D01*
G01X103304Y41556D01*
G01X103355Y41506D01*
G01X103408Y41351D01*
G01X103408Y41247D01*
G01X103355Y41089D01*
G01X103250Y40985D01*
G01X103095Y40934D01*
G01X102941Y40934D01*
G01X102783Y40985D01*
G01X102732Y41038D01*
G01X102679Y41142D01*
G01X103751Y42024D02*
G01X104165Y40934D01*
G01X104581Y42024D02*
G01X104165Y40934D01*
G54D36*
G01X86685Y23853D02*
G01X87449Y23561D01*
G01X86685Y23853D02*
G01X87449Y24142D01*
G01X87195Y23670D02*
G01X87195Y24033D01*
G01X86685Y24599D02*
G01X86723Y24490D01*
G01X86829Y24419D01*
G01X87012Y24384D01*
G01X87121Y24384D01*
G01X87304Y24419D01*
G01X87414Y24490D01*
G01X87449Y24599D01*
G01X87449Y24673D01*
G01X87414Y24782D01*
G01X87304Y24856D01*
G01X87121Y24892D01*
G01X87012Y24892D01*
G01X86829Y24856D01*
G01X86723Y24782D01*
G01X86685Y24673D01*
G01X86685Y24599D01*
G01X89042Y23914D02*
G01X89806Y23622D01*
G01X89042Y23914D02*
G01X89806Y24203D01*
G01X89552Y23731D02*
G01X89552Y24094D01*
G01X89186Y24444D02*
G01X89151Y24516D01*
G01X89042Y24625D01*
G01X89806Y24625D01*
G01X91414Y23586D02*
G01X91985Y23368D01*
G01X91414Y23586D02*
G01X91985Y23804D01*
G01X91795Y23449D02*
G01X91795Y23723D01*
G01X91549Y24010D02*
G01X91523Y24010D01*
G01X91467Y24038D01*
G01X91439Y24066D01*
G01X91414Y24119D01*
G01X91414Y24229D01*
G01X91439Y24284D01*
G01X91467Y24312D01*
G01X91523Y24338D01*
G01X91577Y24338D01*
G01X91632Y24312D01*
G01X91714Y24257D01*
G01X91985Y23985D01*
G01X91985Y24366D01*
G01X94462Y23332D02*
G01X95033Y23114D01*
G01X94462Y23332D02*
G01X95033Y23550D01*
G01X94843Y23195D02*
G01X94843Y23469D01*
G01X94462Y23784D02*
G01X94462Y24084D01*
G01X94680Y23921D01*
G01X94680Y24003D01*
G01X94706Y24058D01*
G01X94734Y24084D01*
G01X94815Y24112D01*
G01X94871Y24112D01*
G01X94952Y24084D01*
G01X95006Y24030D01*
G01X95033Y23949D01*
G01X95033Y23865D01*
G01X95006Y23784D01*
G01X94980Y23756D01*
G01X94924Y23731D01*
G01X78595Y27432D02*
G01X78303Y26667D01*
G01X78595Y27432D02*
G01X78884Y26667D01*
G01X78412Y26921D02*
G01X78775Y26921D01*
G01X79560Y27322D02*
G01X79524Y27393D01*
G01X79415Y27432D01*
G01X79341Y27432D01*
G01X79232Y27393D01*
G01X79161Y27287D01*
G01X79125Y27104D01*
G01X79125Y26921D01*
G01X79161Y26776D01*
G01X79232Y26703D01*
G01X79341Y26667D01*
G01X79379Y26667D01*
G01X79489Y26703D01*
G01X79560Y26776D01*
G01X79598Y26885D01*
G01X79598Y26921D01*
G01X79560Y27030D01*
G01X79489Y27104D01*
G01X79379Y27139D01*
G01X79341Y27139D01*
G01X79232Y27104D01*
G01X79161Y27030D01*
G01X79125Y26921D01*
G01X78595Y24820D02*
G01X78303Y24056D01*
G01X78595Y24820D02*
G01X78884Y24056D01*
G01X78412Y24310D02*
G01X78775Y24310D01*
G01X79633Y24820D02*
G01X79270Y24056D01*
G01X79125Y24820D02*
G01X79633Y24820D01*
G54D38*
G01X127434Y53639D02*
G01X127434Y52550D01*
G01X127071Y53639D02*
G01X127797Y53639D01*
G01X128140Y53639D02*
G01X128869Y52550D01*
G01X128869Y53639D02*
G01X128140Y52550D01*
G01X130146Y53848D02*
G01X129212Y52186D01*
G01X130489Y53639D02*
G01X130489Y52550D01*
G01X130489Y53639D02*
G01X130853Y53639D01*
G01X131008Y53588D01*
G01X131112Y53484D01*
G01X131165Y53380D01*
G01X131216Y53225D01*
G01X131216Y52966D01*
G01X131165Y52809D01*
G01X131112Y52705D01*
G01X131008Y52600D01*
G01X130853Y52550D01*
G01X130489Y52550D01*
G01X131871Y53639D02*
G01X131716Y53588D01*
G01X131612Y53433D01*
G01X131559Y53172D01*
G01X131559Y53017D01*
G01X131612Y52758D01*
G01X131716Y52600D01*
G01X131871Y52550D01*
G01X131975Y52550D01*
G01X132130Y52600D01*
G01X132234Y52758D01*
G01X132288Y53017D01*
G01X132288Y53172D01*
G01X132234Y53433D01*
G01X132130Y53588D01*
G01X131975Y53639D01*
G01X131871Y53639D01*
G01X27249Y53385D02*
G01X27249Y52296D01*
G01X27249Y53385D02*
G01X27716Y53385D01*
G01X27871Y53334D01*
G01X27924Y53284D01*
G01X27975Y53179D01*
G01X27975Y53075D01*
G01X27924Y52971D01*
G01X27871Y52918D01*
G01X27716Y52867D01*
G01X27249Y52867D01*
G01X27612Y52867D02*
G01X27975Y52296D01*
G01X28318Y53385D02*
G01X29047Y52296D01*
G01X29047Y53385D02*
G01X28318Y52296D01*
G01X30324Y53594D02*
G01X29390Y51932D01*
G01X30667Y53385D02*
G01X30667Y52296D01*
G01X30667Y53385D02*
G01X31031Y53385D01*
G01X31186Y53334D01*
G01X31290Y53230D01*
G01X31343Y53126D01*
G01X31394Y52971D01*
G01X31394Y52712D01*
G01X31343Y52555D01*
G01X31290Y52451D01*
G01X31186Y52346D01*
G01X31031Y52296D01*
G01X30667Y52296D01*
G01X31737Y53179D02*
G01X31841Y53230D01*
G01X31998Y53385D01*
G01X31998Y52296D01*
G54D36*
G01X76596Y34290D02*
G01X77360Y34290D01*
G01X76596Y34290D02*
G01X76596Y34544D01*
G01X76634Y34653D01*
G01X76705Y34726D01*
G01X76779Y34762D01*
G01X76888Y34798D01*
G01X77068Y34798D01*
G01X77177Y34762D01*
G01X77251Y34726D01*
G01X77325Y34653D01*
G01X77360Y34544D01*
G01X77360Y34290D01*
G01X76850Y35511D02*
G01X76959Y35476D01*
G01X77033Y35402D01*
G01X77068Y35293D01*
G01X77068Y35257D01*
G01X77033Y35148D01*
G01X76959Y35074D01*
G01X76850Y35039D01*
G01X76814Y35039D01*
G01X76705Y35074D01*
G01X76634Y35148D01*
G01X76596Y35257D01*
G01X76596Y35293D01*
G01X76634Y35402D01*
G01X76705Y35476D01*
G01X76850Y35511D01*
G01X77033Y35511D01*
G01X77215Y35476D01*
G01X77325Y35402D01*
G01X77360Y35293D01*
G01X77360Y35219D01*
G01X77325Y35112D01*
G01X77251Y35074D01*
G01X79136Y34290D02*
G01X79900Y34290D01*
G01X79136Y34290D02*
G01X79136Y34544D01*
G01X79174Y34653D01*
G01X79245Y34726D01*
G01X79319Y34762D01*
G01X79428Y34798D01*
G01X79608Y34798D01*
G01X79717Y34762D01*
G01X79791Y34726D01*
G01X79865Y34653D01*
G01X79900Y34544D01*
G01X79900Y34290D01*
G01X79136Y35219D02*
G01X79174Y35112D01*
G01X79245Y35074D01*
G01X79319Y35074D01*
G01X79390Y35112D01*
G01X79428Y35184D01*
G01X79463Y35328D01*
G01X79499Y35438D01*
G01X79573Y35511D01*
G01X79646Y35547D01*
G01X79755Y35547D01*
G01X79827Y35511D01*
G01X79865Y35476D01*
G01X79900Y35366D01*
G01X79900Y35219D01*
G01X79865Y35112D01*
G01X79827Y35074D01*
G01X79755Y35039D01*
G01X79646Y35039D01*
G01X79573Y35074D01*
G01X79499Y35148D01*
G01X79463Y35257D01*
G01X79428Y35402D01*
G01X79390Y35476D01*
G01X79319Y35511D01*
G01X79245Y35511D01*
G01X79174Y35476D01*
G01X79136Y35366D01*
G01X79136Y35219D01*
G01X81676Y34290D02*
G01X82440Y34290D01*
G01X81676Y34290D02*
G01X81676Y34544D01*
G01X81714Y34653D01*
G01X81785Y34726D01*
G01X81859Y34762D01*
G01X81968Y34798D01*
G01X82148Y34798D01*
G01X82257Y34762D01*
G01X82331Y34726D01*
G01X82405Y34653D01*
G01X82440Y34544D01*
G01X82440Y34290D01*
G01X81676Y35547D02*
G01X82440Y35184D01*
G01X81676Y35039D02*
G01X81676Y35547D01*
G01X84216Y34290D02*
G01X84980Y34290D01*
G01X84216Y34290D02*
G01X84216Y34544D01*
G01X84254Y34653D01*
G01X84325Y34726D01*
G01X84399Y34762D01*
G01X84508Y34798D01*
G01X84688Y34798D01*
G01X84797Y34762D01*
G01X84871Y34726D01*
G01X84945Y34653D01*
G01X84980Y34544D01*
G01X84980Y34290D01*
G01X84325Y35476D02*
G01X84254Y35438D01*
G01X84216Y35328D01*
G01X84216Y35257D01*
G01X84254Y35148D01*
G01X84360Y35074D01*
G01X84543Y35039D01*
G01X84726Y35039D01*
G01X84871Y35074D01*
G01X84945Y35148D01*
G01X84980Y35257D01*
G01X84980Y35293D01*
G01X84945Y35402D01*
G01X84871Y35476D01*
G01X84762Y35511D01*
G01X84726Y35511D01*
G01X84617Y35476D01*
G01X84543Y35402D01*
G01X84508Y35293D01*
G01X84508Y35257D01*
G01X84543Y35148D01*
G01X84617Y35074D01*
G01X84726Y35039D01*
G01X86756Y34290D02*
G01X87520Y34290D01*
G01X86756Y34290D02*
G01X86756Y34544D01*
G01X86794Y34653D01*
G01X86865Y34726D01*
G01X86939Y34762D01*
G01X87048Y34798D01*
G01X87228Y34798D01*
G01X87337Y34762D01*
G01X87411Y34726D01*
G01X87485Y34653D01*
G01X87520Y34544D01*
G01X87520Y34290D01*
G01X86756Y35476D02*
G01X86756Y35112D01*
G01X87083Y35074D01*
G01X87048Y35112D01*
G01X87010Y35219D01*
G01X87010Y35328D01*
G01X87048Y35438D01*
G01X87119Y35511D01*
G01X87228Y35547D01*
G01X87302Y35547D01*
G01X87411Y35511D01*
G01X87485Y35438D01*
G01X87520Y35328D01*
G01X87520Y35219D01*
G01X87485Y35112D01*
G01X87447Y35074D01*
G01X87375Y35039D01*
G01X89296Y34290D02*
G01X90060Y34290D01*
G01X89296Y34290D02*
G01X89296Y34544D01*
G01X89334Y34653D01*
G01X89405Y34726D01*
G01X89479Y34762D01*
G01X89588Y34798D01*
G01X89768Y34798D01*
G01X89877Y34762D01*
G01X89951Y34726D01*
G01X90025Y34653D01*
G01X90060Y34544D01*
G01X90060Y34290D01*
G01X89296Y35402D02*
G01X89806Y35039D01*
G01X89806Y35585D01*
G01X89296Y35402D02*
G01X90060Y35402D01*
G01X91836Y34290D02*
G01X92600Y34290D01*
G01X91836Y34290D02*
G01X91836Y34544D01*
G01X91874Y34653D01*
G01X91945Y34726D01*
G01X92019Y34762D01*
G01X92128Y34798D01*
G01X92308Y34798D01*
G01X92417Y34762D01*
G01X92491Y34726D01*
G01X92565Y34653D01*
G01X92600Y34544D01*
G01X92600Y34290D01*
G01X91836Y35112D02*
G01X91836Y35511D01*
G01X92128Y35293D01*
G01X92128Y35402D01*
G01X92163Y35476D01*
G01X92199Y35511D01*
G01X92308Y35547D01*
G01X92382Y35547D01*
G01X92491Y35511D01*
G01X92565Y35438D01*
G01X92600Y35328D01*
G01X92600Y35219D01*
G01X92565Y35112D01*
G01X92527Y35074D01*
G01X92455Y35039D01*
G01X94376Y34290D02*
G01X95140Y34290D01*
G01X94376Y34290D02*
G01X94376Y34544D01*
G01X94414Y34653D01*
G01X94485Y34726D01*
G01X94559Y34762D01*
G01X94668Y34798D01*
G01X94848Y34798D01*
G01X94957Y34762D01*
G01X95031Y34726D01*
G01X95105Y34653D01*
G01X95140Y34544D01*
G01X95140Y34290D01*
G01X94559Y35074D02*
G01X94520Y35074D01*
G01X94449Y35112D01*
G01X94414Y35148D01*
G01X94376Y35219D01*
G01X94376Y35366D01*
G01X94414Y35438D01*
G01X94449Y35476D01*
G01X94520Y35511D01*
G01X94594Y35511D01*
G01X94668Y35476D01*
G01X94777Y35402D01*
G01X95140Y35039D01*
G01X95140Y35547D01*
G54D33*
G01X13533Y22933D02*
G01X13533Y21026D01*
G01X13533Y22933D02*
G01X14170Y22933D01*
G01X14442Y22844D01*
G01X14622Y22661D01*
G01X14714Y22481D01*
G01X14805Y22207D01*
G01X14805Y21752D01*
G01X14714Y21480D01*
G01X14622Y21297D01*
G01X14442Y21117D01*
G01X14170Y21026D01*
G01X13533Y21026D01*
G01X15404Y22933D02*
G01X15404Y21026D01*
G01X16006Y22933D02*
G01X16733Y22026D01*
G01X16733Y21026D01*
G01X17459Y22933D02*
G01X16733Y22026D01*
G01X7945Y17246D02*
G01X7945Y15958D01*
G01X7945Y17246D02*
G01X8496Y17246D01*
G01X8681Y17185D01*
G01X8742Y17124D01*
G01X8803Y17000D01*
G01X8803Y16878D01*
G01X8742Y16756D01*
G01X8681Y16692D01*
G01X8496Y16631D01*
G01X7945Y16631D01*
G01X8374Y16631D02*
G01X8803Y15958D01*
G01X10129Y16939D02*
G01X10068Y17061D01*
G01X9946Y17185D01*
G01X9822Y17246D01*
G01X9578Y17246D01*
G01X9453Y17185D01*
G01X9331Y17061D01*
G01X9270Y16939D01*
G01X9209Y16756D01*
G01X9209Y16449D01*
G01X9270Y16263D01*
G01X9331Y16141D01*
G01X9453Y16019D01*
G01X9578Y15958D01*
G01X9822Y15958D01*
G01X9946Y16019D01*
G01X10068Y16141D01*
G01X10129Y16263D01*
G01X11909Y17246D02*
G01X11909Y15958D01*
G01X11480Y17246D02*
G01X12339Y17246D01*
G01X12743Y16817D02*
G01X12743Y15958D01*
G01X12743Y16449D02*
G01X12804Y16631D01*
G01X12928Y16756D01*
G01X13050Y16817D01*
G01X13233Y16817D01*
G01X14376Y16817D02*
G01X14376Y15958D01*
G01X14376Y16631D02*
G01X14254Y16756D01*
G01X14129Y16817D01*
G01X13947Y16817D01*
G01X13822Y16756D01*
G01X13700Y16631D01*
G01X13639Y16449D01*
G01X13639Y16327D01*
G01X13700Y16141D01*
G01X13822Y16019D01*
G01X13947Y15958D01*
G01X14129Y15958D01*
G01X14254Y16019D01*
G01X14376Y16141D01*
G01X14780Y16817D02*
G01X14780Y15958D01*
G01X14780Y16570D02*
G01X14965Y16756D01*
G01X15087Y16817D01*
G01X15272Y16817D01*
G01X15394Y16756D01*
G01X15455Y16570D01*
G01X15455Y15958D01*
G01X16535Y16631D02*
G01X16474Y16756D01*
G01X16291Y16817D01*
G01X16106Y16817D01*
G01X15923Y16756D01*
G01X15859Y16631D01*
G01X15923Y16510D01*
G01X16045Y16449D01*
G01X16352Y16388D01*
G01X16474Y16327D01*
G01X16535Y16202D01*
G01X16535Y16141D01*
G01X16474Y16019D01*
G01X16291Y15958D01*
G01X16106Y15958D01*
G01X15923Y16019D01*
G01X15859Y16141D01*
G01X16941Y16817D02*
G01X16941Y15958D01*
G01X16941Y16570D02*
G01X17124Y16756D01*
G01X17246Y16817D01*
G01X17431Y16817D01*
G01X17553Y16756D01*
G01X17614Y16570D01*
G01X17614Y15958D01*
G01X17614Y16570D02*
G01X17800Y16756D01*
G01X17922Y16817D01*
G01X18107Y16817D01*
G01X18229Y16756D01*
G01X18290Y16570D01*
G01X18290Y15958D01*
G01X18696Y17246D02*
G01X18757Y17185D01*
G01X18818Y17246D01*
G01X18757Y17307D01*
G01X18696Y17246D01*
G01X18757Y16817D02*
G01X18757Y15958D01*
G01X19408Y17246D02*
G01X19408Y16202D01*
G01X19468Y16019D01*
G01X19590Y15958D01*
G01X19715Y15958D01*
G01X19222Y16817D02*
G01X19654Y16817D01*
G01X20304Y17246D02*
G01X20304Y16202D01*
G01X20365Y16019D01*
G01X20487Y15958D01*
G01X20609Y15958D01*
G01X20119Y16817D02*
G01X20548Y16817D01*
G01X21015Y16449D02*
G01X21752Y16449D01*
G01X21752Y16570D01*
G01X21691Y16692D01*
G01X21627Y16756D01*
G01X21506Y16817D01*
G01X21323Y16817D01*
G01X21198Y16756D01*
G01X21076Y16631D01*
G01X21015Y16449D01*
G01X21015Y16327D01*
G01X21076Y16141D01*
G01X21198Y16019D01*
G01X21323Y15958D01*
G01X21506Y15958D01*
G01X21627Y16019D01*
G01X21752Y16141D01*
G01X22156Y16817D02*
G01X22156Y15958D01*
G01X22156Y16449D02*
G01X22217Y16631D01*
G01X22341Y16756D01*
G01X22463Y16817D01*
G01X22646Y16817D01*
G01X9651Y19705D02*
G01X9215Y18559D01*
G01X9651Y19705D02*
G01X10088Y18559D01*
G01X9377Y18940D02*
G01X9923Y18940D01*
G01X10446Y19321D02*
G01X10446Y18559D01*
G01X10446Y18996D02*
G01X10502Y19159D01*
G01X10612Y19268D01*
G01X10721Y19321D01*
G01X10883Y19321D01*
G01X11899Y19705D02*
G01X11899Y18559D01*
G01X11899Y19159D02*
G01X11790Y19268D01*
G01X11681Y19321D01*
G01X11516Y19321D01*
G01X11407Y19268D01*
G01X11297Y19159D01*
G01X11244Y18996D01*
G01X11244Y18887D01*
G01X11297Y18722D01*
G01X11407Y18613D01*
G01X11516Y18559D01*
G01X11681Y18559D01*
G01X11790Y18613D01*
G01X11899Y18722D01*
G01X12257Y19321D02*
G01X12257Y18778D01*
G01X12313Y18613D01*
G01X12423Y18559D01*
G01X12585Y18559D01*
G01X12694Y18613D01*
G01X12857Y18778D01*
G01X12857Y19321D02*
G01X12857Y18559D01*
G01X13218Y19705D02*
G01X13273Y19649D01*
G01X13327Y19705D01*
G01X13273Y19758D01*
G01X13218Y19705D01*
G01X13273Y19321D02*
G01X13273Y18559D01*
G01X13687Y19321D02*
G01X13687Y18559D01*
G01X13687Y19103D02*
G01X13850Y19268D01*
G01X13959Y19321D01*
G01X14124Y19321D01*
G01X14234Y19268D01*
G01X14287Y19103D01*
G01X14287Y18559D01*
G01X14919Y19321D02*
G01X14810Y19268D01*
G01X14701Y19159D01*
G01X14648Y18996D01*
G01X14648Y18887D01*
G01X14701Y18722D01*
G01X14810Y18613D01*
G01X14919Y18559D01*
G01X15084Y18559D01*
G01X15194Y18613D01*
G01X15303Y18722D01*
G01X15356Y18887D01*
G01X15356Y18996D01*
G01X15303Y19159D01*
G01X15194Y19268D01*
G01X15084Y19321D01*
G01X14919Y19321D01*
G01X16555Y19705D02*
G01X16555Y18559D01*
G01X16555Y19159D02*
G01X16664Y19268D01*
G01X16774Y19321D01*
G01X16939Y19321D01*
G01X17048Y19268D01*
G01X17157Y19159D01*
G01X17210Y18996D01*
G01X17210Y18887D01*
G01X17157Y18722D01*
G01X17048Y18613D01*
G01X16939Y18559D01*
G01X16774Y18559D01*
G01X16664Y18613D01*
G01X16555Y18722D01*
G01X18226Y19321D02*
G01X18226Y18559D01*
G01X18226Y19159D02*
G01X18117Y19268D01*
G01X18008Y19321D01*
G01X17843Y19321D01*
G01X17734Y19268D01*
G01X17624Y19159D01*
G01X17571Y18996D01*
G01X17571Y18887D01*
G01X17624Y18722D01*
G01X17734Y18613D01*
G01X17843Y18559D01*
G01X18008Y18559D01*
G01X18117Y18613D01*
G01X18226Y18722D01*
G01X19187Y19159D02*
G01X19131Y19268D01*
G01X18968Y19321D01*
G01X18803Y19321D01*
G01X18640Y19268D01*
G01X18585Y19159D01*
G01X18640Y19050D01*
G01X18750Y18996D01*
G01X19021Y18940D01*
G01X19131Y18887D01*
G01X19187Y18778D01*
G01X19187Y18722D01*
G01X19131Y18613D01*
G01X18968Y18559D01*
G01X18803Y18559D01*
G01X18640Y18613D01*
G01X18585Y18722D01*
G01X19545Y18996D02*
G01X20200Y18996D01*
G01X20200Y19103D01*
G01X20144Y19212D01*
G01X20091Y19268D01*
G01X19982Y19321D01*
G01X19819Y19321D01*
G01X19710Y19268D01*
G01X19601Y19159D01*
G01X19545Y18996D01*
G01X19545Y18887D01*
G01X19601Y18722D01*
G01X19710Y18613D01*
G01X19819Y18559D01*
G01X19982Y18559D01*
G01X20091Y18613D01*
G01X20200Y18722D01*
G01X21213Y19705D02*
G01X21213Y18559D01*
G01X21213Y19159D02*
G01X21104Y19268D01*
G01X20998Y19321D01*
G01X20832Y19321D01*
G01X20723Y19268D01*
G01X20614Y19159D01*
G01X20561Y18996D01*
G01X20561Y18887D01*
G01X20614Y18722D01*
G01X20723Y18613D01*
G01X20832Y18559D01*
G01X20998Y18559D01*
G01X21104Y18613D01*
G01X21213Y18722D01*
G01X13533Y2557D02*
G01X13751Y1795D01*
G01X13969Y2557D02*
G01X13751Y1795D01*
G01X13969Y2557D02*
G01X14188Y1795D01*
G01X14406Y2557D02*
G01X14188Y1795D01*
G01X14764Y2557D02*
G01X14983Y1795D01*
G01X15201Y2557D02*
G01X14983Y1795D01*
G01X15201Y2557D02*
G01X15420Y1795D01*
G01X15638Y2557D02*
G01X15420Y1795D01*
G01X15999Y2557D02*
G01X16217Y1795D01*
G01X16433Y2557D02*
G01X16217Y1795D01*
G01X16433Y2557D02*
G01X16652Y1795D01*
G01X16870Y2557D02*
G01X16652Y1795D01*
G01X17284Y2067D02*
G01X17231Y2014D01*
G01X17284Y1958D01*
G01X17340Y2014D01*
G01X17284Y2067D01*
G01X17701Y2941D02*
G01X17701Y1795D01*
G01X18463Y2941D02*
G01X18463Y1795D01*
G01X17701Y2395D02*
G01X18463Y2395D01*
G01X19095Y2557D02*
G01X18986Y2504D01*
G01X18879Y2395D01*
G01X18823Y2232D01*
G01X18823Y2123D01*
G01X18879Y1958D01*
G01X18986Y1849D01*
G01X19095Y1795D01*
G01X19260Y1795D01*
G01X19369Y1849D01*
G01X19479Y1958D01*
G01X19532Y2123D01*
G01X19532Y2232D01*
G01X19479Y2395D01*
G01X19369Y2504D01*
G01X19260Y2557D01*
G01X19095Y2557D01*
G01X19893Y2557D02*
G01X20111Y1795D01*
G01X20330Y2557D02*
G01X20111Y1795D01*
G01X20330Y2557D02*
G01X20548Y1795D01*
G01X20766Y2557D02*
G01X20548Y1795D01*
G01X21508Y2941D02*
G01X21508Y1795D01*
G01X21125Y2941D02*
G01X21889Y2941D01*
G01X22522Y2557D02*
G01X22412Y2504D01*
G01X22303Y2395D01*
G01X22250Y2232D01*
G01X22250Y2123D01*
G01X22303Y1958D01*
G01X22412Y1849D01*
G01X22522Y1795D01*
G01X22684Y1795D01*
G01X22793Y1849D01*
G01X22903Y1958D01*
G01X22958Y2123D01*
G01X22958Y2232D01*
G01X22903Y2395D01*
G01X22793Y2504D01*
G01X22684Y2557D01*
G01X22522Y2557D01*
G01X23319Y2941D02*
G01X23319Y1795D01*
G01X23319Y2941D02*
G01X23753Y1795D01*
G01X24190Y2941D02*
G01X23753Y1795D01*
G01X24190Y2941D02*
G01X24190Y1795D01*
G01X24551Y2232D02*
G01X25206Y2232D01*
G01X25206Y2339D01*
G01X25150Y2448D01*
G01X25097Y2504D01*
G01X24988Y2557D01*
G01X24823Y2557D01*
G01X24714Y2504D01*
G01X24604Y2395D01*
G01X24551Y2232D01*
G01X24551Y2123D01*
G01X24604Y1958D01*
G01X24714Y1849D01*
G01X24823Y1795D01*
G01X24988Y1795D01*
G01X25097Y1849D01*
G01X25206Y1958D01*
G01X26220Y2395D02*
G01X26111Y2504D01*
G01X26001Y2557D01*
G01X25839Y2557D01*
G01X25730Y2504D01*
G01X25620Y2395D01*
G01X25564Y2232D01*
G01X25564Y2123D01*
G01X25620Y1958D01*
G01X25730Y1849D01*
G01X25839Y1795D01*
G01X26001Y1795D01*
G01X26111Y1849D01*
G01X26220Y1958D01*
G01X26580Y2941D02*
G01X26580Y1795D01*
G01X26580Y2339D02*
G01X26743Y2504D01*
G01X26852Y2557D01*
G01X27017Y2557D01*
G01X27124Y2504D01*
G01X27180Y2339D01*
G01X27180Y1795D01*
G01X28193Y2557D02*
G01X28193Y1795D01*
G01X28193Y2395D02*
G01X28084Y2504D01*
G01X27975Y2557D01*
G01X27812Y2557D01*
G01X27703Y2504D01*
G01X27594Y2395D01*
G01X27541Y2232D01*
G01X27541Y2123D01*
G01X27594Y1958D01*
G01X27703Y1849D01*
G01X27812Y1795D01*
G01X27975Y1795D01*
G01X28084Y1849D01*
G01X28193Y1958D01*
G01X28719Y2941D02*
G01X28719Y2014D01*
G01X28773Y1849D01*
G01X28882Y1795D01*
G01X28991Y1795D01*
G01X28554Y2557D02*
G01X28935Y2557D01*
G01X29352Y2557D02*
G01X29352Y1795D01*
G01X29352Y2232D02*
G01X29405Y2395D01*
G01X29514Y2504D01*
G01X29623Y2557D01*
G01X29786Y2557D01*
G01X30421Y2557D02*
G01X30312Y2504D01*
G01X30203Y2395D01*
G01X30147Y2232D01*
G01X30147Y2123D01*
G01X30203Y1958D01*
G01X30312Y1849D01*
G01X30421Y1795D01*
G01X30584Y1795D01*
G01X30693Y1849D01*
G01X30802Y1958D01*
G01X30855Y2123D01*
G01X30855Y2232D01*
G01X30802Y2395D01*
G01X30693Y2504D01*
G01X30584Y2557D01*
G01X30421Y2557D01*
G01X31216Y2557D02*
G01X31216Y1795D01*
G01X31216Y2339D02*
G01X31379Y2504D01*
G01X31488Y2557D01*
G01X31653Y2557D01*
G01X31762Y2504D01*
G01X31815Y2339D01*
G01X31815Y1795D01*
G01X32176Y2941D02*
G01X32229Y2885D01*
G01X32285Y2941D01*
G01X32229Y2994D01*
G01X32176Y2941D01*
G01X32229Y2557D02*
G01X32229Y1795D01*
G01X33299Y2395D02*
G01X33190Y2504D01*
G01X33080Y2557D01*
G01X32918Y2557D01*
G01X32809Y2504D01*
G01X32699Y2395D01*
G01X32646Y2232D01*
G01X32646Y2123D01*
G01X32699Y1958D01*
G01X32809Y1849D01*
G01X32918Y1795D01*
G01X33080Y1795D01*
G01X33190Y1849D01*
G01X33299Y1958D01*
G01X34259Y2395D02*
G01X34206Y2504D01*
G01X34040Y2557D01*
G01X33878Y2557D01*
G01X33715Y2504D01*
G01X33659Y2395D01*
G01X33715Y2286D01*
G01X33825Y2232D01*
G01X34096Y2176D01*
G01X34206Y2123D01*
G01X34259Y2014D01*
G01X34259Y1958D01*
G01X34206Y1849D01*
G01X34040Y1795D01*
G01X33878Y1795D01*
G01X33715Y1849D01*
G01X33659Y1958D01*
G01X34675Y2067D02*
G01X34620Y2014D01*
G01X34675Y1958D01*
G01X34729Y2014D01*
G01X34675Y2067D01*
G01X35742Y2395D02*
G01X35633Y2504D01*
G01X35526Y2557D01*
G01X35361Y2557D01*
G01X35252Y2504D01*
G01X35143Y2395D01*
G01X35089Y2232D01*
G01X35089Y2123D01*
G01X35143Y1958D01*
G01X35252Y1849D01*
G01X35361Y1795D01*
G01X35526Y1795D01*
G01X35633Y1849D01*
G01X35742Y1958D01*
G01X36377Y2557D02*
G01X36268Y2504D01*
G01X36159Y2395D01*
G01X36103Y2232D01*
G01X36103Y2123D01*
G01X36159Y1958D01*
G01X36268Y1849D01*
G01X36377Y1795D01*
G01X36540Y1795D01*
G01X36649Y1849D01*
G01X36758Y1958D01*
G01X36812Y2123D01*
G01X36812Y2232D01*
G01X36758Y2395D01*
G01X36649Y2504D01*
G01X36540Y2557D01*
G01X36377Y2557D01*
G01X37172Y2557D02*
G01X37172Y1795D01*
G01X37172Y2339D02*
G01X37335Y2504D01*
G01X37444Y2557D01*
G01X37609Y2557D01*
G01X37718Y2504D01*
G01X37772Y2339D01*
G01X37772Y1795D01*
G01X37772Y2339D02*
G01X37937Y2504D01*
G01X38046Y2557D01*
G01X38209Y2557D01*
G01X38318Y2504D01*
G01X38374Y2339D01*
G01X38374Y1795D01*
G01X8961Y14231D02*
G01X9169Y13500D01*
G01X9380Y14231D02*
G01X9169Y13500D01*
G01X9380Y14231D02*
G01X9588Y13500D01*
G01X9796Y14231D02*
G01X9588Y13500D01*
G01X11084Y14805D02*
G01X10142Y13134D01*
G01X12232Y14597D02*
G01X12232Y13500D01*
G01X12232Y14597D02*
G01X12964Y13500D01*
G01X12964Y14597D02*
G01X12964Y13500D01*
G01X13309Y14597D02*
G01X13309Y13500D01*
G01X13309Y14597D02*
G01X13779Y14597D01*
G01X13936Y14544D01*
G01X13990Y14493D01*
G01X14041Y14389D01*
G01X14041Y14282D01*
G01X13990Y14178D01*
G01X13936Y14127D01*
G01X13779Y14074D01*
G01X13309Y14074D01*
G01X13675Y14074D02*
G01X14041Y13500D01*
G01X14386Y14597D02*
G01X14386Y13500D01*
G01X14386Y14597D02*
G01X15067Y14597D01*
G01X14386Y14074D02*
G01X14805Y14074D01*
G01X15463Y14335D02*
G01X15463Y14389D01*
G01X15516Y14493D01*
G01X15567Y14544D01*
G01X15671Y14597D01*
G01X15882Y14597D01*
G01X15986Y14544D01*
G01X16039Y14493D01*
G01X16090Y14389D01*
G01X16090Y14282D01*
G01X16039Y14178D01*
G01X15933Y14023D01*
G01X15412Y13500D01*
G01X16144Y13500D01*
G01X17010Y14597D02*
G01X16487Y13865D01*
G01X17271Y13865D01*
G01X17010Y14597D02*
G01X17010Y13500D01*
G01X17617Y14597D02*
G01X17617Y13500D01*
G01X17617Y13500D02*
G01X18244Y13500D01*
G01X18902Y14597D02*
G01X18747Y14544D01*
G01X18640Y14389D01*
G01X18590Y14127D01*
G01X18590Y13970D01*
G01X18640Y13708D01*
G01X18747Y13550D01*
G01X18902Y13500D01*
G01X19006Y13500D01*
G01X19164Y13550D01*
G01X19268Y13708D01*
G01X19321Y13970D01*
G01X19321Y14127D01*
G01X19268Y14389D01*
G01X19164Y14544D01*
G01X19006Y14597D01*
G01X18902Y14597D01*
G01X19667Y14389D02*
G01X19771Y14439D01*
G01X19928Y14597D01*
G01X19928Y13500D01*
G01X130492Y60294D02*
G01X130439Y60398D01*
G01X130284Y60452D01*
G01X130177Y60452D01*
G01X130022Y60398D01*
G01X129918Y60243D01*
G01X129865Y59982D01*
G01X129865Y59720D01*
G01X129918Y59512D01*
G01X130022Y59405D01*
G01X130177Y59354D01*
G01X130230Y59354D01*
G01X130388Y59405D01*
G01X130492Y59512D01*
G01X130545Y59667D01*
G01X130545Y59720D01*
G01X130492Y59877D01*
G01X130388Y59982D01*
G01X130230Y60032D01*
G01X130177Y60032D01*
G01X130022Y59982D01*
G01X129918Y59877D01*
G01X129865Y59720D01*
G01X130888Y59824D02*
G01X131830Y59824D01*
G01X132176Y60243D02*
G01X132280Y60294D01*
G01X132438Y60452D01*
G01X132438Y59354D01*
G01X132834Y60190D02*
G01X132834Y60243D01*
G01X132887Y60347D01*
G01X132938Y60398D01*
G01X133042Y60452D01*
G01X133253Y60452D01*
G01X133357Y60398D01*
G01X133408Y60347D01*
G01X133461Y60243D01*
G01X133461Y60137D01*
G01X133408Y60032D01*
G01X133304Y59877D01*
G01X132780Y59354D01*
G01X133512Y59354D01*
G01X133857Y60452D02*
G01X134276Y59354D01*
G01X134696Y60452D02*
G01X134276Y59354D01*
G54D38*
G01X75254Y48915D02*
G01X75254Y49415D01*
G01X75618Y49141D01*
G01X75618Y49278D01*
G01X75663Y49369D01*
G01X75709Y49415D01*
G01X75846Y49461D01*
G01X75938Y49461D01*
G01X76072Y49415D01*
G01X76164Y49324D01*
G01X76210Y49187D01*
G01X76210Y49049D01*
G01X76164Y48915D01*
G01X76118Y48869D01*
G01X76027Y48823D01*
G01X75983Y49806D02*
G01X76027Y49761D01*
G01X76072Y49806D01*
G01X76027Y49850D01*
G01X75983Y49806D01*
G01X75254Y50241D02*
G01X75254Y50741D01*
G01X75618Y50469D01*
G01X75618Y50606D01*
G01X75663Y50695D01*
G01X75709Y50741D01*
G01X75846Y50787D01*
G01X75938Y50787D01*
G01X76072Y50741D01*
G01X76164Y50650D01*
G01X76210Y50515D01*
G01X76210Y50378D01*
G01X76164Y50241D01*
G01X76118Y50195D01*
G01X76027Y50152D01*
G01X75254Y51087D02*
G01X76210Y51450D01*
G01X75254Y51816D02*
G01X76210Y51450D01*
G54D36*
G01X95069Y25836D02*
G01X95547Y25654D01*
G01X95069Y25836D02*
G01X95547Y26017D01*
G01X95389Y25722D02*
G01X95389Y25948D01*
G01X95069Y26441D02*
G01X95069Y26212D01*
G01X95275Y26189D01*
G01X95252Y26212D01*
G01X95229Y26281D01*
G01X95229Y26349D01*
G01X95252Y26418D01*
G01X95298Y26464D01*
G01X95366Y26484D01*
G01X95412Y26484D01*
G01X95478Y26464D01*
G01X95524Y26418D01*
G01X95547Y26349D01*
G01X95547Y26281D01*
G01X95524Y26212D01*
G01X95501Y26189D01*
G01X95455Y26167D01*
G01X92430Y25872D02*
G01X93001Y25654D01*
G01X92430Y25872D02*
G01X93001Y26090D01*
G01X92811Y25735D02*
G01X92811Y26009D01*
G01X92430Y26543D02*
G01X92811Y26271D01*
G01X92811Y26680D01*
G01X92430Y26543D02*
G01X93001Y26543D01*
G54D38*
G01X41945Y18435D02*
G01X41945Y17346D01*
G01X41945Y18435D02*
G01X42412Y18435D01*
G01X42567Y18385D01*
G01X42620Y18334D01*
G01X42671Y18230D01*
G01X42671Y18125D01*
G01X42620Y18021D01*
G01X42567Y17968D01*
G01X42412Y17917D01*
G01X41945Y17917D02*
G01X42412Y17917D01*
G01X42567Y17864D01*
G01X42620Y17813D01*
G01X42671Y17709D01*
G01X42671Y17554D01*
G01X42620Y17450D01*
G01X42567Y17396D01*
G01X42412Y17346D01*
G01X41945Y17346D01*
G01X43067Y18176D02*
G01X43067Y18230D01*
G01X43118Y18334D01*
G01X43172Y18385D01*
G01X43276Y18435D01*
G01X43481Y18435D01*
G01X43586Y18385D01*
G01X43639Y18334D01*
G01X43690Y18230D01*
G01X43690Y18125D01*
G01X43639Y18021D01*
G01X43535Y17864D01*
G01X43014Y17346D01*
G01X43743Y17346D01*
G01X29801Y47244D02*
G01X29801Y46413D01*
G01X29748Y46258D01*
G01X29697Y46205D01*
G01X29593Y46154D01*
G01X29489Y46154D01*
G01X29385Y46205D01*
G01X29331Y46258D01*
G01X29281Y46413D01*
G01X29281Y46517D01*
G01X30144Y47038D02*
G01X30246Y47089D01*
G01X30403Y47244D01*
G01X30403Y46154D01*
G01X129623Y47244D02*
G01X129623Y46413D01*
G01X129570Y46258D01*
G01X129519Y46205D01*
G01X129415Y46154D01*
G01X129311Y46154D01*
G01X129207Y46205D01*
G01X129153Y46258D01*
G01X129102Y46413D01*
G01X129102Y46517D01*
G01X130017Y46984D02*
G01X130017Y47038D01*
G01X130068Y47142D01*
G01X130121Y47193D01*
G01X130225Y47244D01*
G01X130433Y47244D01*
G01X130538Y47193D01*
G01X130588Y47142D01*
G01X130639Y47038D01*
G01X130639Y46934D01*
G01X130588Y46830D01*
G01X130484Y46672D01*
G01X129966Y46154D01*
G01X130692Y46154D01*
G54D33*
G01X56713Y18796D02*
G01X56713Y17556D01*
G01X56713Y18796D02*
G01X57185Y17556D01*
G01X57657Y18796D02*
G01X57185Y17556D01*
G01X57657Y18796D02*
G01X57657Y17556D01*
G01X58049Y18796D02*
G01X58049Y17556D01*
G01X58049Y18796D02*
G01X58579Y18796D01*
G01X58757Y18737D01*
G01X58816Y18679D01*
G01X58874Y18559D01*
G01X58874Y18381D01*
G01X58816Y18265D01*
G01X58757Y18206D01*
G01X58579Y18145D01*
G01X58049Y18145D01*
G01X59265Y18796D02*
G01X59265Y17909D01*
G01X59324Y17731D01*
G01X59443Y17614D01*
G01X59621Y17556D01*
G01X59738Y17556D01*
G01X59915Y17614D01*
G01X60032Y17731D01*
G01X60093Y17909D01*
G01X60093Y18796D01*
G01X61191Y18618D02*
G01X61132Y18737D01*
G01X60954Y18796D01*
G01X60837Y18796D01*
G01X60660Y18737D01*
G01X60543Y18559D01*
G01X60482Y18265D01*
G01X60482Y17967D01*
G01X60543Y17731D01*
G01X60660Y17614D01*
G01X60837Y17556D01*
G01X60896Y17556D01*
G01X61074Y17614D01*
G01X61191Y17731D01*
G01X61251Y17909D01*
G01X61251Y17967D01*
G01X61191Y18145D01*
G01X61074Y18265D01*
G01X60896Y18323D01*
G01X60837Y18323D01*
G01X60660Y18265D01*
G01X60543Y18145D01*
G01X60482Y17967D01*
G01X61996Y18796D02*
G01X61818Y18737D01*
G01X61699Y18559D01*
G01X61640Y18265D01*
G01X61640Y18087D01*
G01X61699Y17792D01*
G01X61818Y17614D01*
G01X61996Y17556D01*
G01X62113Y17556D01*
G01X62290Y17614D01*
G01X62410Y17792D01*
G01X62468Y18087D01*
G01X62468Y18265D01*
G01X62410Y18559D01*
G01X62290Y18737D01*
G01X62113Y18796D01*
G01X61996Y18796D01*
G01X63568Y18796D02*
G01X62976Y18796D01*
G01X62918Y18265D01*
G01X62976Y18323D01*
G01X63154Y18381D01*
G01X63332Y18381D01*
G01X63507Y18323D01*
G01X63626Y18206D01*
G01X63685Y18028D01*
G01X63685Y17909D01*
G01X63626Y17731D01*
G01X63507Y17614D01*
G01X63332Y17556D01*
G01X63154Y17556D01*
G01X62976Y17614D01*
G01X62918Y17673D01*
G01X62857Y17792D01*
G01X64429Y18796D02*
G01X64251Y18737D01*
G01X64134Y18559D01*
G01X64076Y18265D01*
G01X64076Y18087D01*
G01X64134Y17792D01*
G01X64251Y17614D01*
G01X64429Y17556D01*
G01X64548Y17556D01*
G01X64726Y17614D01*
G01X64843Y17792D01*
G01X64901Y18087D01*
G01X64901Y18265D01*
G01X64843Y18559D01*
G01X64726Y18737D01*
G01X64548Y18796D01*
G01X64429Y18796D01*
G54D38*
G01X24455Y13953D02*
G01X24455Y12864D01*
G01X24455Y13953D02*
G01X24922Y13953D01*
G01X25077Y13903D01*
G01X25130Y13852D01*
G01X25181Y13748D01*
G01X25181Y13644D01*
G01X25130Y13539D01*
G01X25077Y13486D01*
G01X24922Y13435D01*
G01X24455Y13435D02*
G01X24922Y13435D01*
G01X25077Y13382D01*
G01X25130Y13331D01*
G01X25181Y13227D01*
G01X25181Y13072D01*
G01X25130Y12968D01*
G01X25077Y12915D01*
G01X24922Y12864D01*
G01X24455Y12864D01*
G01X25524Y13748D02*
G01X25628Y13799D01*
G01X25785Y13953D01*
G01X25785Y12864D01*
G01X115773Y18435D02*
G01X115773Y17346D01*
G01X115773Y18435D02*
G01X116240Y18435D01*
G01X116395Y18385D01*
G01X116448Y18334D01*
G01X116499Y18230D01*
G01X116499Y18125D01*
G01X116448Y18021D01*
G01X116395Y17968D01*
G01X116240Y17917D01*
G01X115773Y17917D02*
G01X116240Y17917D01*
G01X116395Y17864D01*
G01X116448Y17813D01*
G01X116499Y17709D01*
G01X116499Y17554D01*
G01X116448Y17450D01*
G01X116395Y17396D01*
G01X116240Y17346D01*
G01X115773Y17346D01*
G01X116946Y18435D02*
G01X117518Y18435D01*
G01X117208Y18021D01*
G01X117363Y18021D01*
G01X117467Y17968D01*
G01X117518Y17917D01*
G01X117571Y17762D01*
G01X117571Y17658D01*
G01X117518Y17501D01*
G01X117414Y17396D01*
G01X117259Y17346D01*
G01X117104Y17346D01*
G01X116946Y17396D01*
G01X116896Y17450D01*
G01X116842Y17554D01*
G01X133929Y13699D02*
G01X133929Y12610D01*
G01X133929Y13699D02*
G01X134396Y13699D01*
G01X134551Y13649D01*
G01X134604Y13598D01*
G01X134655Y13494D01*
G01X134655Y13390D01*
G01X134604Y13285D01*
G01X134551Y13232D01*
G01X134396Y13181D01*
G01X133929Y13181D02*
G01X134396Y13181D01*
G01X134551Y13128D01*
G01X134604Y13077D01*
G01X134655Y12973D01*
G01X134655Y12818D01*
G01X134604Y12714D01*
G01X134551Y12661D01*
G01X134396Y12610D01*
G01X133929Y12610D01*
G01X135519Y13699D02*
G01X134998Y12973D01*
G01X135778Y12973D01*
G01X135519Y13699D02*
G01X135519Y12610D01*
G01X56205Y69596D02*
G01X56205Y68503D01*
G01X56205Y69596D02*
G01X56672Y69596D01*
G01X56827Y69542D01*
G01X56878Y69491D01*
G01X56931Y69387D01*
G01X56931Y69230D01*
G01X56878Y69126D01*
G01X56827Y69075D01*
G01X56672Y69024D01*
G01X56205Y69024D01*
G01X57586Y69596D02*
G01X57482Y69542D01*
G01X57378Y69438D01*
G01X57325Y69334D01*
G01X57274Y69179D01*
G01X57274Y68920D01*
G01X57325Y68762D01*
G01X57378Y68658D01*
G01X57482Y68554D01*
G01X57586Y68503D01*
G01X57792Y68503D01*
G01X57896Y68554D01*
G01X58000Y68658D01*
G01X58054Y68762D01*
G01X58104Y68920D01*
G01X58104Y69179D01*
G01X58054Y69334D01*
G01X58000Y69438D01*
G01X57896Y69542D01*
G01X57792Y69596D01*
G01X57586Y69596D01*
G01X58811Y69596D02*
G01X58811Y68503D01*
G01X58447Y69596D02*
G01X59176Y69596D01*
G01X59519Y69387D02*
G01X59621Y69438D01*
G01X59778Y69596D01*
G01X59778Y68503D01*
G01X99893Y69596D02*
G01X99893Y68503D01*
G01X99893Y69596D02*
G01X100362Y69596D01*
G01X100517Y69542D01*
G01X100568Y69491D01*
G01X100621Y69387D01*
G01X100621Y69230D01*
G01X100568Y69126D01*
G01X100517Y69075D01*
G01X100362Y69024D01*
G01X99893Y69024D01*
G01X101277Y69596D02*
G01X101173Y69542D01*
G01X101069Y69438D01*
G01X101015Y69334D01*
G01X100964Y69179D01*
G01X100964Y68920D01*
G01X101015Y68762D01*
G01X101069Y68658D01*
G01X101173Y68554D01*
G01X101277Y68503D01*
G01X101483Y68503D01*
G01X101587Y68554D01*
G01X101691Y68658D01*
G01X101744Y68762D01*
G01X101795Y68920D01*
G01X101795Y69179D01*
G01X101744Y69334D01*
G01X101691Y69438D01*
G01X101587Y69542D01*
G01X101483Y69596D01*
G01X101277Y69596D01*
G01X102501Y69596D02*
G01X102501Y68503D01*
G01X102138Y69596D02*
G01X102864Y69596D01*
G01X103261Y69334D02*
G01X103261Y69387D01*
G01X103311Y69491D01*
G01X103365Y69542D01*
G01X103469Y69596D01*
G01X103677Y69596D01*
G01X103779Y69542D01*
G01X103832Y69491D01*
G01X103883Y69387D01*
G01X103883Y69283D01*
G01X103832Y69179D01*
G01X103728Y69024D01*
G01X103207Y68503D01*
G01X103936Y68503D01*
G01X39296Y46227D02*
G01X39296Y45135D01*
G01X38933Y46227D02*
G01X39659Y46227D01*
G01X40002Y46019D02*
G01X40106Y46070D01*
G01X40263Y46227D01*
G01X40263Y45135D01*
G01X119306Y46227D02*
G01X119306Y45135D01*
G01X118943Y46227D02*
G01X119669Y46227D01*
G01X120065Y45966D02*
G01X120065Y46019D01*
G01X120116Y46123D01*
G01X120169Y46174D01*
G01X120273Y46227D01*
G01X120479Y46227D01*
G01X120583Y46174D01*
G01X120637Y46123D01*
G01X120687Y46019D01*
G01X120687Y45915D01*
G01X120637Y45811D01*
G01X120533Y45656D01*
G01X120012Y45135D01*
G01X120741Y45135D01*
G01X67398Y49524D02*
G01X67345Y49629D01*
G01X67241Y49733D01*
G01X67139Y49784D01*
G01X66931Y49784D01*
G01X66827Y49733D01*
G01X66723Y49629D01*
G01X66669Y49524D01*
G01X66619Y49369D01*
G01X66619Y49110D01*
G01X66669Y48953D01*
G01X66723Y48849D01*
G01X66827Y48745D01*
G01X66931Y48694D01*
G01X67139Y48694D01*
G01X67241Y48745D01*
G01X67345Y48849D01*
G01X67398Y48953D01*
G01X67741Y49578D02*
G01X67845Y49629D01*
G01X68000Y49784D01*
G01X68000Y48694D01*
G54D39*
G01X66240Y45910D02*
G01X65094Y45910D01*
G01X65666Y46482D02*
G01X65666Y45336D01*
G54D40*
G01X108816Y40149D02*
G01X109865Y39751D01*
G01X108816Y40149D02*
G01X109865Y40551D01*
G01X109517Y39900D02*
G01X109517Y40401D01*
G01X108816Y40881D02*
G01X109865Y40881D01*
G01X108816Y40881D02*
G01X109865Y41280D01*
G01X108816Y41681D02*
G01X109865Y41280D01*
G01X108816Y41681D02*
G01X109865Y41681D01*
G01X108965Y42710D02*
G01X108866Y42611D01*
G01X108816Y42461D01*
G01X108816Y42260D01*
G01X108866Y42110D01*
G01X108965Y42011D01*
G01X109064Y42011D01*
G01X109166Y42059D01*
G01X109214Y42110D01*
G01X109265Y42212D01*
G01X109367Y42511D01*
G01X109415Y42611D01*
G01X109466Y42661D01*
G01X109565Y42710D01*
G01X109715Y42710D01*
G01X109816Y42611D01*
G01X109865Y42461D01*
G01X109865Y42260D01*
G01X109816Y42110D01*
G01X109715Y42011D01*
G01X109016Y43040D02*
G01X108965Y43141D01*
G01X108816Y43291D01*
G01X109865Y43291D01*
G01X109016Y43621D02*
G01X108965Y43721D01*
G01X108816Y43870D01*
G01X109865Y43870D01*
G01X109016Y44201D02*
G01X108965Y44300D01*
G01X108816Y44450D01*
G01X109865Y44450D01*
G01X108816Y45481D02*
G01X109865Y44980D01*
G01X108816Y44780D02*
G01X108816Y45481D01*
G54D10*
G75*
G01X30414Y31263D02*
G03X30414Y31263I-635J0D01*
G01*
G75*
G01X130414Y31263D02*
G03X130414Y31263I-635J0D01*
G01*
G75*
G01X66280Y53314D02*
G03X66280Y53314I-8501J0D01*
G01*
G75*
G01X110280Y53314D02*
G03X110280Y53314I-8501J0D01*
G01*
G75*
G01X70785Y44724D02*
G03X70785Y44724I-3150J0D01*
G01*
G36*
G01X75509Y20568D02*
G01X108783Y20568D01*
G01X108783Y20314D01*
G01X75509Y20314D01*
G01X75509Y20568D01*
G37*
G36*
G01X75255Y38348D02*
G01X75509Y38348D01*
G01X75509Y20314D01*
G01X75255Y20314D01*
G01X75255Y38348D01*
G37*
G36*
G01X108783Y38348D02*
G01X109037Y38348D01*
G01X109037Y20314D01*
G01X108783Y20314D01*
G01X108783Y38348D01*
G37*
G36*
G01X75255Y38602D02*
G01X109037Y38602D01*
G01X109037Y38348D01*
G01X75255Y38348D01*
G01X75255Y38602D01*
G37*
M00*
M02*
