G04 Layer: BottomLayer*
G04 EasyEDA v6.3.41, 2020-05-08T09:10:35+02:00*
G04 d89a9af8d5c5437eb0be35cb3310ab06,10*
G04 Gerber Generator version 0.2*
G04 Scale: 100 percent, Rotated: No, Reflected: No *
G04 Dimensions in millimeters *
G04 leading zeros omitted , absolute positions ,3 integer and 3 decimal *
%FSLAX33Y33*%
%MOMM*%
G90*
G71D02*

%ADD11C,0.299999*%
%ADD12C,0.399999*%
%ADD15C,0.619760*%
%ADD18C,1.778000*%
%ADD19C,1.569999*%
%ADD20R,1.569999X1.569999*%
%ADD21C,2.499995*%
%ADD22C,2.399995*%
%ADD23R,1.799996X1.799996*%
%ADD24C,1.799996*%
%ADD25C,1.524000*%
%ADD26C,2.286000*%
%ADD27R,1.498600X1.498600*%
%ADD28C,1.498600*%
%ADD29C,1.879600*%
%ADD30C,3.099994*%
%ADD31C,1.599997*%
%ADD32R,1.599997X1.599997*%

%LPD*%
G54D12*
G01X90749Y19558D02*
G01X95072Y19558D01*
G01X97353Y21838D01*
G01X51887Y22097D02*
G01X51887Y26416D01*
G01X45029Y33274D01*
G01X20148Y33274D01*
G01X19618Y33803D01*
G54D11*
G01X64841Y32004D02*
G01X61793Y32004D01*
G01X59507Y29718D01*
G01X59507Y22098D01*
G01X72715Y42418D02*
G01X72715Y35052D01*
G01X73985Y33782D01*
G01X77541Y33782D01*
G01X79573Y31750D01*
G01X79573Y21838D01*
G01X87193Y37078D02*
G01X87193Y48514D01*
G01X85161Y50546D01*
G01X78557Y50546D01*
G01X77033Y49022D01*
G01X77033Y45719D01*
G01X78303Y44449D01*
G01X78303Y46989D02*
G01X78303Y48514D01*
G01X79319Y49530D01*
G01X84653Y49530D01*
G01X85923Y48260D01*
G01X85923Y38348D01*
G01X84653Y37078D01*
G01X82113Y21838D02*
G01X82113Y32258D01*
G01X79827Y34544D01*
G01X75001Y34544D01*
G01X73477Y36068D01*
G01X73477Y39624D01*
G01X74493Y40640D01*
G01X78049Y40640D01*
G01X79573Y42164D01*
G01X79573Y45212D01*
G01X80081Y45720D01*
G01X82113Y45720D01*
G01X83383Y44450D01*
G01X80843Y44450D02*
G01X80843Y41402D01*
G01X79065Y39624D01*
G01X75509Y39624D01*
G01X74493Y38608D01*
G01X74493Y37084D01*
G01X76271Y35306D01*
G01X81351Y35306D01*
G01X84653Y32004D01*
G01X84653Y21838D01*
G01X77033Y26918D02*
G01X75514Y26918D01*
G01X59253Y43180D01*
G01X59253Y58166D01*
G01X64841Y63754D01*
G01X99218Y63754D01*
G01X101778Y66314D01*
G01X77033Y24378D02*
G01X75768Y24378D01*
G01X57729Y42418D01*
G01X57729Y66264D01*
G01X57778Y66314D01*
G01X131135Y50546D02*
G01X131135Y49022D01*
G01X132913Y47244D01*
G01X132913Y44003D01*
G01X132953Y43963D01*
G01X112847Y33274D02*
G01X113609Y33274D01*
G01X121483Y41148D01*
G01X121483Y43434D01*
G01X128595Y50546D01*
G01X34615Y46736D02*
G01X30805Y50546D01*
G01X57729Y35306D02*
G01X56205Y35306D01*
G01X45029Y46482D01*
G01X45029Y60243D01*
G01X39004Y66268D01*
G01X55443Y34544D02*
G01X46807Y34544D01*
G01X34615Y46736D01*
G01X34615Y67818D01*
G01X35631Y68834D01*
G01X40457Y68834D01*
G01X41473Y67818D01*
G01X41473Y66339D01*
G01X41544Y66268D01*
G54D12*
G01X89733Y21838D02*
G01X84907Y17018D01*
G01X51887Y17018D01*
G01X42235Y26670D01*
G01X31821Y26670D01*
G01X29789Y24638D01*
G01X29778Y21102D01*
G01X19618Y31262D02*
G01X26212Y31262D01*
G01X29027Y28448D01*
G01X42997Y28448D01*
G01X53157Y18288D01*
G01X83642Y18288D01*
G01X87193Y21838D01*
G54D11*
G01X94813Y37078D02*
G01X96337Y38608D01*
G01X109291Y38608D01*
G01X110307Y37592D01*
G01X110307Y18516D01*
G01X113355Y15240D01*
G01X131477Y10345D02*
G01X111323Y30474D01*
G01X111323Y38354D01*
G01X110053Y39624D01*
G01X94818Y39624D01*
G01X92273Y37078D01*
G01X119778Y49916D02*
G01X100030Y49916D01*
G01X89733Y37078D01*
G54D18*
G01X107513Y23108D03*
G01X107513Y25648D03*
G01X107513Y35808D03*
G01X107513Y33268D03*
G01X107513Y30728D03*
G01X107513Y28188D03*
G01X104973Y21838D03*
G01X102433Y21838D03*
G01X99893Y21838D03*
G01X97353Y21838D03*
G01X94813Y21838D03*
G01X92273Y21838D03*
G01X89733Y21838D03*
G01X87193Y21838D03*
G01X84653Y21838D03*
G01X82113Y21838D03*
G01X79573Y21838D03*
G01X77033Y21838D03*
G01X77033Y37078D03*
G01X79573Y37078D03*
G01X82113Y37078D03*
G01X84653Y37078D03*
G01X87193Y37078D03*
G01X89733Y37078D03*
G01X92273Y37078D03*
G01X94813Y37078D03*
G01X97353Y37078D03*
G01X99893Y37078D03*
G01X102433Y37078D03*
G01X104973Y37078D03*
G01X93543Y24384D03*
G01X96083Y24384D03*
G01X77033Y26918D03*
G01X77033Y24378D03*
G54D19*
G01X115641Y43688D03*
G54D20*
G01X115641Y41148D03*
G54D21*
G01X113863Y66045D03*
G54D22*
G01X119862Y66045D03*
G01X116863Y66045D03*
G54D18*
G01X36464Y66268D03*
G01X39004Y66268D03*
G01X41544Y66268D03*
G01X44084Y66268D03*
G01X46624Y66268D03*
G54D23*
G01X127833Y57388D03*
G54D24*
G01X127833Y59928D03*
G54D18*
G01X28265Y50546D03*
G01X30805Y50546D03*
G01X128595Y50546D03*
G01X131135Y50546D03*
G54D25*
G01X39695Y15240D03*
G01X39695Y11176D03*
G01X46299Y15240D03*
G01X46299Y11176D03*
G54D26*
G01X22158Y37918D03*
G01X37398Y37918D03*
G01X37398Y24608D03*
G01X22158Y24608D03*
G54D18*
G01X32318Y21103D03*
G01X29778Y21103D03*
G01X27238Y21103D03*
G01X19618Y31263D03*
G01X19618Y28723D03*
G01X19618Y33803D03*
G01X32953Y38883D03*
G01X26603Y38883D03*
G01X26603Y43963D03*
G01X32953Y43963D03*
G54D26*
G01X122158Y37918D03*
G01X137398Y37918D03*
G01X137398Y24608D03*
G01X122158Y24608D03*
G54D18*
G01X132318Y21103D03*
G01X129778Y21103D03*
G01X127238Y21103D03*
G01X119618Y31263D03*
G01X119618Y28723D03*
G01X119618Y33803D03*
G01X132953Y38883D03*
G01X126603Y38883D03*
G01X126603Y43963D03*
G01X132953Y43963D03*
G54D27*
G01X75763Y44450D03*
G54D28*
G01X78303Y44450D03*
G01X80843Y44450D03*
G01X83383Y44450D03*
G01X83383Y46990D03*
G01X80843Y46990D03*
G01X78303Y46990D03*
G01X75763Y46990D03*
G54D29*
G01X51887Y22098D03*
G01X54427Y22098D03*
G01X56967Y22098D03*
G01X59507Y22098D03*
G01X62047Y22098D03*
G01X64587Y22098D03*
G01X67127Y22098D03*
G01X69667Y22098D03*
G54D25*
G01X21476Y10346D03*
G01X21476Y6282D03*
G01X28080Y10346D03*
G01X28080Y6282D03*
G01X113355Y15240D03*
G01X113355Y11176D03*
G01X119959Y15240D03*
G01X119959Y11176D03*
G01X131476Y10346D03*
G01X131476Y6282D03*
G01X138080Y10346D03*
G01X138080Y6282D03*
G54D22*
G01X57778Y66314D03*
G01X62858Y66314D03*
G01X52698Y66314D03*
G01X101778Y66314D03*
G01X106858Y66314D03*
G01X96698Y66314D03*
G54D30*
G01X39778Y59314D03*
G01X39778Y54615D03*
G01X39778Y49916D03*
G01X119778Y59314D03*
G01X119778Y54615D03*
G01X119778Y49916D03*
G54D31*
G01X67635Y45974D03*
G54D32*
G01X67635Y43474D03*
G54D15*
G01X57729Y35306D03*
G01X90749Y19558D03*
G01X55443Y34544D03*
G01X112847Y33274D03*
G01X72715Y42418D03*
G01X64841Y32004D03*
M00*
M02*
